<?xml version="1.0" encoding="UTF-8"?>
<svg width="752pt" height="752pt" version="1.1" viewBox="0 0 752 752" xmlns="http://www.w3.org/2000/svg">
 <g>
  <path d="m322.45 592h-46.457c-4.1875-0.011719-8.1992-1.6797-11.16-4.6406-2.9609-2.9609-4.6289-6.9727-4.6406-11.16v-146.89c0-4.1953 1.6641-8.2188 4.6289-11.188 2.9609-2.9688 6.9805-4.6445 11.172-4.6562h46.457c4.1992 0 8.2305 1.668 11.203 4.6406 2.9688 2.9727 4.6406 7 4.6406 11.203v146.89c-0.011718 4.1953-1.6875 8.2148-4.6562 11.176-2.9727 2.9648-6.9961 4.625-11.188 4.625zm-46.457-169.93c-3.9766 0.023438-7.1875 3.2578-7.1875 7.2344v146.89c0 3.9727 3.2188 7.1914 7.1875 7.1914h46.457c3.9766 0 7.207-3.2109 7.2305-7.1914v-146.89c0-1.918-0.76172-3.7578-2.1172-5.1133-1.3555-1.3594-3.1953-2.1211-5.1133-2.1211z"/>
  <path d="m317.19 422.07h-36.809c-2.3789 0-4.3086-1.9258-4.3086-4.3047v-151.93c0.042969-3.543-0.90234-7.0312-2.7266-10.07-1.8242-3.043-4.457-5.5156-7.6055-7.1484l-0.55859-0.34375c-21.141-15.5-64.578 14.809-79.477 27.77v-0.003906c-1.4609 1.2773-3.5938 1.418-5.207 0.34766l-11.152-7.3633c-1.6602-1.0469-2.4023-3.082-1.8086-4.9531 25.574-64.836 86.105-82.188 98.074-84.984 1.0273-0.26172 2.082-0.39062 3.1445-0.38672h51.664c3.7891 0 8.6094 2.7109 16.445 7.1055v-0.003906c3.9492 2.4883 8.1328 4.5938 12.484 6.2852 14.766 3.9609 28.758-11.41 32.676-16.188 0.82031-1.0117 2.0586-1.5977 3.3594-1.5898h23.508c1.1406 0 2.2344 0.45312 3.043 1.2578 0.80859 0.80859 1.2617 1.9023 1.2617 3.0469v70.734c0 1.1406-0.45312 2.2383-1.2617 3.043-0.80859 0.80859-1.9023 1.2617-3.043 1.2617h-23.551c-1.3008 0.003907-2.5391-0.58203-3.3594-1.5938-4.1016-4.9883-9.2656-9.0039-15.109-11.75-5.6797-2.9727-12.02-4.4531-18.426-4.3086-13.777 0.81641-20.406 12.914-23.207 18.082l-0.94531 1.6797c-1.8281 3.0117-2.793 6.4688-2.8008 9.9883v152.02c0 1.1445-0.45312 2.2383-1.2617 3.0469-0.80469 0.80469-1.9023 1.2578-3.043 1.2578zm-32.504-8.6094h28.199v-147.63c0.003906-5.0977 1.4023-10.102 4.0469-14.465 0-0.30078 0.42969-0.77344 0.73047-1.293 3.1875-5.8984 11.711-21.527 30.137-22.602 7.8555-0.28125 15.652 1.4531 22.648 5.0391 6.375 2.9883 12.074 7.2539 16.746 12.527h17.223v-62.34h-17.223c-12.484 14.465-27.426 20.965-40.297 17.438v-0.003906c-5.0703-1.8008-9.9258-4.1719-14.465-7.0586-3.8125-2.4688-7.9023-4.4766-12.188-5.9844h-51.664 0.003907c-0.35938-0.046876-0.71875-0.046876-1.0781 0-11.023 2.625-66.129 18.34-90.797 76.59l5.7266 3.7891c11.625-9.5156 59.672-46.152 87.398-26.305h-0.003907c4.4453 2.3711 8.1641 5.9062 10.75 10.23 2.5859 4.3242 3.9453 9.2695 3.9336 14.309z"/>
  <path d="m434.6 469.9h-67.766c-2.3789 0-4.3047-1.9258-4.3047-4.3047v-33.625c0-2.375 1.9258-4.3047 4.3047-4.3047h67.766c1.1406 0 2.2344 0.45313 3.043 1.2617 0.80859 0.80859 1.2617 1.9023 1.2617 3.043v33.582c0.011718 1.1484-0.4375 2.2578-1.2461 3.0742s-1.9102 1.2734-3.0586 1.2734zm-63.461-8.6094h59.152v-25.016h-59.152z"/>
  <path d="m405.32 592h-9.2148c-6.2422-0.011719-12.223-2.4961-16.637-6.9102-4.4141-4.4141-6.8984-10.395-6.9102-16.637v-102.86c0-2.3789 1.9258-4.3047 4.3047-4.3047h47.703c1.1406 0 2.2344 0.45313 3.043 1.2617 0.80859 0.80859 1.2617 1.9023 1.2617 3.043v102.86c-0.011719 6.2422-2.4961 12.223-6.9102 16.637-4.4141 4.4141-10.398 6.8984-16.641 6.9102zm-24.152-122.1v98.551c0 3.9609 1.5742 7.7617 4.375 10.562s6.6016 4.375 10.562 4.375h9.2148c3.957-0.011719 7.7539-1.5898 10.551-4.3867 2.8008-2.8008 4.3789-6.5938 4.3867-10.551v-98.551z"/>
  <path d="m414.32 436.27h-28.461c-2.375 0-4.3047-1.9258-4.3047-4.3047v-105.05l-8.9102-22.43c-0.48047-1.0977-0.48047-2.3477 0-3.4453l9.1719-19.246h-0.003906c0.71875-1.5078 2.2461-2.4648 3.918-2.4531h28.59c1.6523 0.003906 3.1602 0.96094 3.8711 2.4531l9.2148 19.246c0.48047 1.0977 0.48047 2.3477 0 3.4453l-8.7812 22.43v105.05c0 1.1445-0.45312 2.2383-1.2617 3.0469-0.80859 0.80469-1.9023 1.2578-3.043 1.2578zm-24.152-8.6094h19.844v-101.56c-0.007813-0.53125 0.097656-1.0586 0.30469-1.5469l8.6094-21.527-7.1914-15.113h-23.16l-7.2344 15.113 8.6094 21.527c0.1875 0.49609 0.28906 1.0195 0.30078 1.5469z"/>
  <path d="m509.77 305.74c-10.742 0.027344-21.363-2.2773-31.125-6.7578-18.156-8.2734-32.27-23.43-39.223-42.129-6.9531-18.699-6.1758-39.395 2.1602-57.52s23.547-32.184 42.27-39.066c1.4531-0.57031 3.1016-0.30469 4.3047 0.6875 1.1836 0.9375 1.7852 2.4219 1.5938 3.918l-8.1367 58.637h56.227l-8.0508-58.465c-0.20703-1.5078 0.39844-3.0156 1.5938-3.9609 1.2031-0.99219 2.8516-1.2578 4.3047-0.6875 18.75 6.8555 33.988 20.906 42.344 39.035 8.3594 18.129 9.1406 38.844 2.1797 57.551-6.9609 18.711-21.094 33.871-39.27 42.129-9.7852 4.4453-20.422 6.707-31.172 6.6289zm-29.75-134.45c-17.973 9.0117-30.902 25.672-35.168 45.32-4.2656 19.648 0.59375 40.172 13.211 55.824 12.621 15.652 31.645 24.754 51.75 24.754 20.105 0 39.133-9.1016 51.75-24.754 12.621-15.652 17.477-36.176 13.211-55.824-4.2656-19.648-17.195-36.309-35.168-45.32l7.6641 55.969c0.17578 1.2422-0.20312 2.5-1.0352 3.4453-0.8125 0.92969-1.9922 1.4609-3.2266 1.4609h-66.344c-1.2461 0.011719-2.4375-0.51562-3.2617-1.4492-0.82422-0.93359-1.207-2.1797-1.043-3.4141z"/>
  <path d="m509.77 592c-8.9141 0-17.465-3.5352-23.773-9.8281-6.3125-6.2969-9.8711-14.836-9.8945-23.75v-263.36c0.003906-1.4648 0.75-2.8281 1.9805-3.6172 1.2773-0.86328 2.9219-0.98047 4.3086-0.30078 17.48 7.9414 37.539 7.9414 55.02 0 1.3867-0.67969 3.0273-0.5625 4.3047 0.30078 1.2344 0.78906 1.9805 2.1523 1.9805 3.6172v263.36c-0.011718 8.9609-3.5977 17.547-9.9688 23.852-6.3711 6.3086-14.992 9.8086-23.957 9.7266zm-25.055-290.52v256.94c0 8.9336 4.7656 17.191 12.504 21.66 7.7422 4.4688 17.277 4.4688 25.016 0s12.508-12.727 12.508-21.66v-256.94c-16.191 5.6836-33.836 5.6836-50.027 0z"/>
  <path d="m509.72 568.84c-4.5664 0-8.9453-1.8164-12.176-5.043-3.2305-3.2305-5.043-7.6133-5.043-12.18 0-4.5664 1.8125-8.9453 5.043-12.176s7.6094-5.043 12.176-5.043 8.9492 1.8125 12.18 5.043c3.2266 3.2305 5.043 7.6094 5.043 12.176 0 4.5664-1.8164 8.9492-5.043 12.18-3.2305 3.2266-7.6133 5.043-12.18 5.043zm0-25.832c-3.4805 0-6.6211 2.0977-7.9531 5.3164-1.332 3.2148-0.59766 6.918 1.8672 9.3828 2.4609 2.4609 6.1641 3.1992 9.3828 1.8672 3.2148-1.3359 5.3164-4.4727 5.3164-7.957-0.09375-4.6875-3.9219-8.4375-8.6133-8.4375z"/>
  <path d="m509.72 503.44c-2.375 0-4.3047-1.9258-4.3047-4.3047v-169.33c0-2.375 1.9297-4.3047 4.3047-4.3047 2.3789 0 4.3047 1.9297 4.3047 4.3047v169.33c0 1.1406-0.45312 2.2383-1.2578 3.043-0.80859 0.80859-1.9023 1.2617-3.0469 1.2617z"/>
 </g>
</svg>
