<?xml version="1.0" encoding="UTF-8" standalone="no"?>
<!-- Created with Inkscape (http://www.inkscape.org/) -->

<svg
   width="297mm"
   height="210mm"
   viewBox="0 0 297 210"
   version="1.1"
   id="svg1980"
   inkscape:version="1.2 (dc2aedaf03, 2022-05-15)"
   sodipodi:docname="dessin.svg"
   xmlns:inkscape="http://www.inkscape.org/namespaces/inkscape"
   xmlns:sodipodi="http://sodipodi.sourceforge.net/DTD/sodipodi-0.dtd"
   xmlns="http://www.w3.org/2000/svg"
   xmlns:svg="http://www.w3.org/2000/svg">
  <sodipodi:namedview
     id="namedview1982"
     pagecolor="#ffffff"
     bordercolor="#000000"
     borderopacity="0.25"
     inkscape:showpageshadow="2"
     inkscape:pageopacity="0.0"
     inkscape:pagecheckerboard="0"
     inkscape:deskcolor="#d1d1d1"
     inkscape:document-units="mm"
     showgrid="false"
     inkscape:zoom="0.89263468"
     inkscape:cx="209.4922"
     inkscape:cy="561.25984"
     inkscape:window-width="2560"
     inkscape:window-height="1387"
     inkscape:window-x="1358"
     inkscape:window-y="-8"
     inkscape:window-maximized="1"
     inkscape:current-layer="layer1" />
  <defs
     id="defs1977">
    <clipPath
       id="cp19">
      <path
         transform="matrix(1,0,0,-1,0,595.276)"
         d="M 158.439,114.309 H 419.52799 V 404.991 H 158.439 Z"
         id="path674" />
    </clipPath>
    <clipPath
       id="cp20">
      <path
         transform="matrix(1,0,0,-1,0,595.276)"
         d="M 464.182,161.772 H 530.03 V 285.266 H 464.182 Z"
         id="path677" />
    </clipPath>
    <clipPath
       id="cp21">
      <path
         transform="matrix(1,0,0,-1,0,595.276)"
         d="m 333.536,167.804 h 65.848 v 123.493 h -65.848 z"
         id="path686" />
    </clipPath>
    <clipPath
       id="cp22">
      <path
         transform="matrix(1,0,0,-1,0,595.276)"
         d="M 57.9554,407.009 H 718.104 v 8.679 H 57.9554 Z"
         id="path695" />
    </clipPath>
    <clipPath
       id="cp23">
      <path
         transform="matrix(1,0,0,-1,0,595.276)"
         d="M 718.104,407.009 H 57.955995 v 8.679 H 718.104 Z"
         id="path698" />
    </clipPath>
    <clipPath
       id="cp24">
      <path
         transform="matrix(1,0,0,-1,0,595.276)"
         d="M 0,0 H 419.528 V 591.732 H 0 Z"
         id="path979" />
    </clipPath>
    <clipPath
       id="cp25">
      <path
         transform="matrix(1,0,0,-1,0,595.276)"
         d="m 174.424,110.167 h 329.212 v 7.993 H 174.424 Z"
         id="path982" />
    </clipPath>
    <clipPath
       id="cp27">
      <path
         transform="matrix(1,0,0,-1,0,595.276)"
         d="m 321.542,6.114 h 80.54 v 41.194 h -80.54 z"
         id="path1006" />
    </clipPath>
  </defs>
  <g
     inkscape:label="Calque 1"
     inkscape:groupmode="layer"
     id="layer1">
    <rect
       style="fill:#e8f1fd;stroke-width:0.264583;fill-opacity:1"
       id="rect3501"
       width="321.89822"
       height="146.42516"
       x="-5.0389218"
       y="-6.8173652" />
    <path
       d="m 203.62989,131.20528 -32.851,4.5023 -12.39664,-0.0413 -20.76413,-3.0939 -97.00413,1.32659 -19.525018,-2.65189 -21.28373356,1.3494 v 80.07171 H 297.19462 v -79.14651 l -36.53925,-2.35769 z"
       fill="#dce6e9"
       id="path318"
       style="stroke-width:0.670456" />
    <g
       clip-path="url(#cp24)"
       id="g991"
       transform="matrix(0.42038143,0,0,0.50584112,121.12938,-120.33773)">
      <g
         opacity="0.350006"
         id="g989">
        <clipPath
           id="clipPath2831">
          <path
             transform="matrix(1,0,0,-1,0,595.276)"
             d="m 174.424,110.167 h 329.212 v 7.993 H 174.424 Z"
             id="path2829" />
        </clipPath>
        <g
           clip-path="url(#cp25)"
           id="g987"
           transform="translate(12.60314,18.484606)">
          <path
             transform="matrix(1,0,0,-1,339.0302,484.9851)"
             d="M 0,0 C 90.841,0 164.483,1.734 164.483,3.873 164.483,6.012 90.841,7.746 0,7.746 -90.841,7.746 -164.483,6.012 -164.483,3.873 -164.483,1.734 -90.841,0 0,0"
             fill="#231f20"
             id="path985" />
        </g>
      </g>
    </g>
    <g
       clip-path="url(#cp19)"
       id="g969"
       transform="matrix(0.45066878,0,0,0.45066878,107.7455,-84.8608)">
      <g
         opacity="0.600006"
         id="g684">
        <clipPath
           id="clipPath2004">
          <path
             transform="matrix(1,0,0,-1,0,595.276)"
             d="M 464.182,161.772 H 530.03 V 285.266 H 464.182 Z"
             id="path2002" />
        </clipPath>
        <g
           clip-path="url(#cp20)"
           id="g682">
          <path
             transform="matrix(1,0,0,-1,514.0989,310.0102)"
             d="m 0,0 -49.917,-116.646 v -0.002 l 15.93,-6.845 49.918,116.647 z"
             fill="#76c14b"
             id="path680" />
        </g>
      </g>
      <g
         opacity="0.600006"
         id="g693">
        <clipPath
           id="clipPath2011">
          <path
             transform="matrix(1,0,0,-1,0,595.276)"
             d="m 333.536,167.804 h 65.848 v 123.493 h -65.848 z"
             id="path2009" />
        </clipPath>
        <g
           clip-path="url(#cp21)"
           id="g691">
          <path
             transform="matrix(1,0,0,-1,383.4536,303.9793)"
             d="m 0,0 -49.917,-116.647 15.93,-6.846 L 15.93,-6.845 0.002,0 Z"
             fill="#76c14b"
             id="path689" />
        </g>
      </g>
      <g
         opacity="0.100006"
         id="g707">
        <clipPath
           id="clipPath2018">
          <path
             transform="matrix(1,0,0,-1,0,595.276)"
             d="M 57.9554,407.009 H 718.104 v 8.679 H 57.9554 Z"
             id="path2016" />
        </clipPath>
        <g
           clip-path="url(#cp22)"
           id="g705">
          <clipPath
             id="clipPath2022">
            <path
               transform="matrix(1,0,0,-1,0,595.276)"
               d="M 718.104,407.009 H 57.955995 v 8.679 H 718.104 Z"
               id="path2020" />
          </clipPath>
          <g
             clip-path="url(#cp23)"
             id="g703">
            <path
               transform="matrix(1,0,0,-1,718.1038,186.1177)"
               d="m 0,0 c 0,0 -28.917,-0.73 -63.248,0 -4.366,0.092 -14.333,1.304 -19.378,1.703 -34.707,3 -59.693,-6.332 -95.09,-2.95 -3.003,0.313 -5.977,-0.233 -9.183,-0.233 h -112.002 c -3.433,0 -6.869,0.743 -10.308,0.75 -41.777,1.937 -70.681,5.937 -111.569,2.062 -6.451,-1.215 -17.565,-2.251 -20.917,-2.219 -14.151,-0.013 -28.258,-0.593 -42.326,-0.593 h -8.443 c -36.815,6.666 -76.699,-2.925 -114.523,-0.152 -3.855,0.142 -7.599,0.152 -11.346,0.152 h -9.455 -8.378 -23.983 v 6.666 h 32.361 9.455 c 3.747,0 7.491,-0.652 11.295,-0.849 37.875,-3.689 75.413,4.416 113.273,0.653 2.854,-0.124 5.744,0.196 8.631,0.196 h 43.547 c 3.265,0 6.545,-0.642 9.829,-0.627 43.237,2.898 80.772,2.248 122.549,0.31 3.439,-0.003 6.875,0.317 10.308,0.317 h 112.002 c 3.201,0 6.389,-0.659 9.31,-0.91 C -144.54,1.62 -109.351,7.134 -77.07,4.8 -71.853,4.404 -67.602,4.22 -63.248,4.051 -25.398,2.593 0,3.89 0,3.89 Z"
               fill="#064a69"
               id="path701" />
          </g>
        </g>
      </g>
      <path
         transform="matrix(1,0,0,-1,367.7068,66.801578)"
         d="m 0,0 c 0,0 3.089,-36.488 -0.275,-36.785 -3.367,-0.292 -3.698,1.187 -3.367,6.498 C -3.311,-24.978 -2.98,0 -2.98,0 Z"
         fill="#5d6162"
         id="path709" />
      <path
         transform="matrix(1,0,0,-1,377.6968,65.1474)"
         d="m 0,0 c 0,-2.703 -2.191,-4.136 -4.892,-4.136 h -12.585 c -2.701,0 -4.894,1.433 -4.894,4.136 0,2.703 2.193,4.136 4.894,4.136 H -4.892 C -2.191,4.136 0,2.703 0,0"
         fill="#54c4c3"
         id="path711" />
      <path
         transform="matrix(1,0,0,-1,369.8327,64.980228)"
         d="m 0,0 c 0,-0.988 -0.118,-1.821 -1.107,-1.821 h -4.874 c -0.989,0 -2.29,0.833 -2.29,1.821 v 0.651 c 0,0.987 1.301,1.663 2.29,1.663 h 4.874 C -0.118,2.314 0,1.638 0,0.651 Z"
         fill="#14afa0"
         id="path713" />
      <path
         transform="matrix(1,0,0,-1,486.3197,-61.197999)"
         d="m 0,0 c 0,0 13.602,-0.872 15.288,-2.191 1.687,-1.32 1.099,-4.619 -0.88,-4.216 -1.979,0.404 -11.071,1.036 -12.316,0.428 -1.247,-0.611 -0.88,2.609 0.439,2.758 1.32,0.15 7.772,-0.877 7.772,-0.877 0,0 4.315,1.173 -9.611,2.493 0,0 -0.134,0.818 -0.692,1.605"
         fill="#45484a"
         id="path715" />
      <path
         transform="matrix(1,0,0,-1,591.0056,89.83429)"
         d="m 0,0 c 0,40.911 -33.165,74.076 -74.076,74.076 -40.911,0 -74.077,-33.165 -74.077,-74.076 0,-40.914 33.166,-74.078 74.077,-74.078 C -33.165,-74.078 0,-40.914 0,0 m 13.294,0 c 0,-48.254 -39.118,-87.372 -87.371,-87.372 -48.253,0 -87.37,39.118 -87.37,87.372 0,48.252 39.117,87.371 87.37,87.371 48.253,0 87.371,-39.119 87.371,-87.371"
         fill="#064a69"
         id="path717" />
      <path
         transform="matrix(1,0,0,-1,438.7973,89.83429)"
         stroke-width="4.136"
         stroke-linecap="butt"
         stroke-miterlimit="10"
         stroke-linejoin="miter"
         fill="none"
         stroke="#dddedd"
         d="m 0,0 c 0,43.151 34.981,78.132 78.132,78.132 43.151,0 78.134,-34.981 78.134,-78.132 0,-43.152 -34.983,-78.133 -78.134,-78.133 C 34.981,-78.133 0,-43.152 0,0 Z"
         id="path719" />
      <path
         transform="matrix(1,0,0,-1,464.9058,-9.089722)"
         d="m 0,0 c -1.275,4.557 -0.182,7.657 -7.11,8.567 -6.925,0.911 -125.584,0 -125.584,0 0,0 30.44,-118.109 33.356,-117.2 C -96.422,-107.721 1.275,-4.557 0,0 m -106.993,-108.638 c -2.005,6.204 -30.257,107.91 -30.257,107.91 0,0 -0.548,7.29 -5.286,0 -4.739,-7.291 -58.327,-88.585 -58.327,-88.585 0,0 -7.655,-8.93 3.646,-10.388 11.301,-1.458 87.49,-12.394 87.49,-12.394 0,0 4.739,-2.744 2.734,3.457 m 162.536,8.1 c -1.76,-2.638 -6.745,-2.933 -6.745,1.321 0,4.253 -0.148,0.586 -0.148,0.586 0,0 -21.263,17.158 -28.449,41.94 -7.185,24.782 -16.57,46.631 -17.45,46.192 -0.88,-0.441 -29.034,-30.794 -35.928,-38.86 -6.891,-8.066 -59.242,-63.789 -63.056,-67.162 -3.812,-3.373 -64.67,7.331 -65.696,7.331 -1.027,0 -42.086,7.332 -43.406,6.452 0,0 -1.467,-3.665 -4.106,-2.931 -2.641,0.733 -9.242,4.105 -3.668,8.651 5.572,4.545 37.244,52.645 37.244,52.645 0,0 33.282,49.858 33.722,51.618 0.44,1.759 -5.976,2.252 -0.742,8.359 5.23,6.107 -9.372,30.195 -10.482,30.757 l 4.392,1.091 c 0,0 4.095,-1.69 7.464,-9.427 3.294,-7.56 3.729,-22.013 6.304,-22.403 2.576,-0.391 127.809,-0.004 127.809,-0.004 v 2.479 c 0,0 -3.076,1.813 -0.814,2.516 l -0.188,3.936 6.748,2.492 1.468,-3.666 c 0,0 27.277,-86.372 31.529,-93.851 4.252,-7.478 19.065,-25.661 20.825,-25.957 1.76,-0.291 5.131,-1.464 3.373,-4.105"
         fill="#54c4c3"
         id="path721" />
      <path
         transform="matrix(1,0,0,-1,357.4194,102.7197)"
         d="m 0,0 0.735,-2.644 -10.78,-8.429 c 0,0 -4.942,8.937 -1.931,16.072 z"
         fill="#c1c3c3"
         id="path723" />
      <path
         transform="matrix(1,0,0,-1,369.9773,103.53909)"
         d="m 0,0 -1.059,-2.532 9.645,-9.706 c 0,0 6.018,8.249 3.92,15.706 z"
         fill="#c1c3c3"
         id="path725" />
      <path
         transform="matrix(1,0,0,-1,458.4681,-34.361818)"
         d="m 0,0 c 0,0 -10.601,20.913 -7.208,20.857 3.397,-0.058 42.446,-1.003 44.142,-1.757 1.698,-0.754 0,-4.338 0,-4.338 0,0 -36.405,2.829 -36.405,-0.189 0,-3.018 3.324,-13.15 3.324,-13.15 z"
         fill="#45484a"
         id="path727" />
      <path
         transform="matrix(1,0,0,-1,472.2933,-58.243288)"
         d="m 0,0 c 0,0 -6.155,6.577 1.722,7.702 0,0 11.394,-0.767 13.178,-3.815 C 17.389,-0.363 13.375,-4.81 12,-4.364 10.45,-3.861 1.654,-0.82 0,0"
         id="path729" />
      <path
         transform="matrix(1,0,0,-1,474.1729,-67.403018)"
         stroke-width="0.827"
         stroke-linecap="butt"
         stroke-miterlimit="10"
         stroke-linejoin="miter"
         fill="none"
         stroke="#ffffff"
         d="m 0,0 c 1.562,-2.598 3.833,-5.765 1.433,-8.744 -1.025,-1.272 -2.583,-1.441 -3.819,-2.259"
         id="path731" />
      <path
         transform="matrix(1,0,0,-1,356.753,103.61029)"
         d="m 0,0 c 0,3.897 3.159,7.055 7.056,7.055 3.898,0 7.056,-3.158 7.056,-7.055 0,-3.897 -3.158,-7.057 -7.056,-7.057 C 3.159,-7.057 0,-3.897 0,0"
         fill="#5d6162"
         id="path733" />
      <path
         transform="matrix(1,0,0,-1,250.4872,120.01419)"
         stroke-width="0.827"
         stroke-linecap="butt"
         stroke-miterlimit="10"
         stroke-linejoin="miter"
         fill="none"
         stroke="#252961"
         d="M 0,0 C 7.205,-4.676 102.974,-11.427 128.718,0.788 138.596,5.474 147.504,42.162 96.015,37.565 44.526,32.967 16.55,49.267 4.729,39.935 -7.092,30.604 4.335,25.611 7.75,21.541 11.165,17.469 -12.346,8.012 0,0 Z"
         id="path735" />
      <path
         transform="matrix(1,0,0,-1,250.4872,120.01419)"
         stroke-width="2.481"
         stroke-linecap="round"
         stroke-dasharray="0, 5.813"
         stroke-linejoin="round"
         fill="none"
         stroke="#252961"
         d="M 0,0 C 7.205,-4.676 102.974,-11.427 128.718,0.788 138.596,5.474 147.504,42.162 96.015,37.565 44.526,32.967 16.55,49.267 4.729,39.935 -7.092,30.604 4.335,25.611 7.75,21.541 11.165,17.469 -12.346,8.012 0,0 Z"
         id="path737" />
      <path
         transform="matrix(1,0,0,-1,250.4872,120.01419)"
         stroke-width="0.827"
         stroke-linecap="butt"
         stroke-miterlimit="10"
         stroke-linejoin="miter"
         fill="none"
         stroke="#000000"
         d="m 0,0 c 7.205,-4.676 102.974,-11.427 128.718,0.788 9.878,4.686 18.786,41.374 -32.703,36.777"
         id="path739" />
      <path
         transform="matrix(1,0,0,-1,243.3186,90.537418)"
         d="m 0,0 c 0,0 12.745,8.988 15.913,4.421 3.169,-4.568 -0.46,-4.731 -1.768,-6.337 -1.307,-1.604 0.148,-3.168 2.579,-5.598 2.431,-2.431 3.486,-7.588 0.454,-10.757 -3.033,-3.167 -8.116,-4.864 -8.042,-7.073 0.073,-2.21 -6.757,-6.785 -8.573,-2.619 -1.816,4.166 2.09,11.909 8.646,15.995 C 15.766,-7.883 -1.031,-5.452 0,0"
         fill="#54c4c3"
         id="path741" />
      <path
         transform="matrix(1,0,0,-1,293.7051,-64.61151)"
         d="m 0,0 -3.295,1.29 c 0,0 -0.163,-1.733 0.61,-3.24 0.772,-1.509 2.316,-7.356 6.178,-7.945 3.862,-0.588 7.392,0.368 10.15,0.258 2.758,-0.111 12.284,0.551 15.152,0.478 2.869,-0.073 15.63,4.817 14.932,6.987 0,0 -3.099,-0.376 -3.082,-0.373 C 40.661,-2.543 28.243,-8.242 5.81,-7.811 2.499,-7.748 0.002,-6.615 0,0"
         fill="#45484a"
         id="path743" />
      <path
         transform="matrix(1,0,0,-1,317.0229,-56.513917)"
         d="m 0,0 c 0,0 -4.328,-1.074 -6.952,-0.451 0,0 -1.036,-2.26 0.635,-3.933 1.674,-1.671 3.288,-1.298 3.894,-0.46 C -1.817,-4.008 0,0 0,0 m 1.643,1.256 c 0,0 -2.639,-5.821 -3.518,-7.035 -0.879,-1.215 -3.225,-1.759 -5.653,0.67 -2.43,2.429 -0.924,5.711 -0.924,5.711 3.809,-0.906 10.095,0.654 10.095,0.654"
         fill="#45484a"
         id="path745" />
      <path
         transform="matrix(1,0,0,-1,289.4258,-72.779727)"
         d="m 0,0 c 0,0 -6.178,1.044 -6.092,-1.479 0.087,-2.524 2.871,-3.917 8.267,-5.831 5.396,-1.914 12.009,-6.787 16.97,-8.353 4.961,-1.568 17.23,3.132 23.671,4.525 6.44,1.391 14.357,2.088 14.357,3.654 0,1.566 -2.523,9.922 -22.451,4.264 C 14.794,-8.876 5.657,-0.261 0,0"
         id="path747" />
      <path
         transform="matrix(1,0,0,-1,381.7194,103.3978)"
         d="m 0,0 c 0,9.89 -8.017,17.906 -17.906,17.906 -9.89,0 -17.908,-8.016 -17.908,-17.906 0,-9.89 8.018,-17.906 17.908,-17.906 C -8.017,-17.906 0,-9.89 0,0 M 2.764,-2.09 C 2.493,-4.64 4.288,-6.93 6.805,-7.304 6.687,-7.701 6.561,-8.093 6.426,-8.481 c -2.244,1.156 -5.022,0.364 -6.304,-1.844 -1.284,-2.216 -0.579,-5.038 1.563,-6.403 -0.268,-0.313 -0.543,-0.619 -0.824,-0.919 -1.581,1.965 -4.434,2.371 -6.503,0.877 -2.079,-1.504 -2.581,-4.373 -1.174,-6.493 -0.371,-0.178 -0.749,-0.347 -1.129,-0.508 -0.639,2.446 -3.085,3.985 -5.587,3.459 -2.507,-0.525 -4.132,-2.933 -3.717,-5.44 -0.219,-0.005 -0.437,-0.016 -0.657,-0.016 -0.193,0 -0.384,0.011 -0.576,0.015 0.404,2.487 -1.203,4.882 -3.696,5.42 -2.508,0.541 -4.977,-1.003 -5.615,-3.467 -0.38,0.158 -0.758,0.326 -1.131,0.502 1.391,2.108 0.899,4.957 -1.162,6.464 -2.068,1.513 -4.946,1.111 -6.532,-0.872 -0.282,0.298 -0.557,0.603 -0.827,0.915 2.122,1.362 2.828,4.16 1.56,6.373 -1.273,2.225 -4.072,3.03 -6.328,1.857 -0.136,0.388 -0.264,0.779 -0.382,1.177 2.495,0.377 4.284,2.645 4.027,5.186 -0.256,2.549 -2.481,4.421 -5.016,4.273 0.033,0.412 0.075,0.821 0.127,1.228 2.431,-0.667 4.985,0.678 5.783,3.098 0.805,2.438 -0.47,5.057 -2.851,5.951 0.199,0.362 0.405,0.719 0.619,1.071 1.949,-1.606 4.834,-1.416 6.551,0.472 1.725,1.896 1.628,4.805 -0.177,6.59 0.326,0.249 0.658,0.492 0.997,0.726 1.129,-2.257 3.838,-3.257 6.174,-2.231 2.349,1.029 3.443,3.726 2.519,6.093 0.353,0.084 0.707,0.162 1.066,0.229 0.127,-2.52 2.204,-4.525 4.755,-4.525 2.565,0 4.651,2.028 4.757,4.566 0.406,-0.074 0.809,-0.158 1.209,-0.251 -0.91,-2.352 0.172,-5.03 2.503,-6.068 2.341,-1.044 5.073,-0.041 6.203,2.235 0.34,-0.233 0.673,-0.473 1.002,-0.722 -1.788,-1.779 -1.892,-4.664 -0.185,-6.562 1.715,-1.907 4.618,-2.103 6.578,-0.482 C 4.261,13.142 4.469,12.786 4.669,12.425 2.308,11.53 1.039,8.935 1.825,6.507 2.614,4.067 5.184,2.706 7.633,3.386 7.686,2.98 7.729,2.571 7.765,2.16 5.246,2.298 3.035,0.447 2.764,-2.09"
         fill="#5d6162"
         id="path749" />
      <path
         transform="matrix(1,0,0,-1,341.8463,103.61029)"
         stroke-width="4.963"
         stroke-linecap="butt"
         stroke-miterlimit="10"
         stroke-linejoin="miter"
         fill="none"
         stroke="#45484a"
         d="m 0,0 c 0,12.131 9.834,21.963 21.963,21.963 12.131,0 21.963,-9.832 21.963,-21.963 0,-12.13 -9.832,-21.964 -21.963,-21.964 C 9.834,-21.964 0,-12.13 0,0 Z"
         id="path751" />
      <path
         transform="matrix(1,0,0,-1,362.5179,142.0698)"
         d="M 0,0 C 0,0 -3.088,36.051 0.276,36.345 3.643,36.641 3.974,35.378 3.643,30.069 3.312,24.76 2.981,0 2.981,0 Z"
         fill="#5d6162"
         id="path753" />
      <path
         transform="matrix(1,0,0,-1,374.7954,143.51972)"
         d="m 0,0 c 0,-2.558 -2.242,-4.34 -4.945,-4.34 h -12.408 c -2.703,0 -4.979,1.782 -4.979,4.34 v 0.248 c 0,2.559 2.276,4.51 4.979,4.51 H -4.945 C -2.242,4.758 0,2.807 0,0.248 Z"
         fill="#54c4c3"
         id="path755" />
      <path
         transform="matrix(1,0,0,-1,368.1785,144.41712)"
         d="m 0,0 c 0,-0.988 -0.801,-1.788 -1.79,-1.788 h -4.691 c -0.989,0 -1.79,0.8 -1.79,1.788 v 0.559 c 0,0.988 0.801,1.788 1.79,1.788 H -1.79 C -0.801,2.347 0,1.547 0,0.559 Z"
         fill="#14afa0"
         id="path757" />
      <path
         transform="matrix(1,0,0,-1,359.799,103.61029)"
         d="M 0,0 C 0,2.215 1.796,4.009 4.011,4.009 6.224,4.009 8.019,2.215 8.019,0 8.019,-2.215 6.224,-4.011 4.011,-4.011 1.796,-4.011 0,-2.215 0,0"
         fill="#2b2f31"
         id="path759" />
      <path
         transform="matrix(1,0,0,-1,333.2075,93.79379)"
         d="m 0,0 c 0,40.912 -33.165,74.077 -74.077,74.077 -40.91,0 -74.077,-33.165 -74.077,-74.077 0,-40.913 33.167,-74.079 74.077,-74.079 C -33.165,-74.079 0,-40.913 0,0 m 13.294,0 c 0,-48.254 -39.117,-87.372 -87.371,-87.372 -48.254,0 -87.372,39.118 -87.372,87.372 0,48.253 39.118,87.371 87.372,87.371 48.254,0 87.371,-39.118 87.371,-87.371"
         fill="#064a69"
         id="path761" />
      <path
         transform="matrix(1,0,0,-1,180.9984,93.79379)"
         stroke-width="4.136"
         stroke-linecap="butt"
         stroke-miterlimit="10"
         stroke-linejoin="miter"
         fill="none"
         stroke="#dddedd"
         d="m 0,0 c 0,43.151 34.981,78.132 78.133,78.132 43.151,0 78.132,-34.981 78.132,-78.132 0,-43.153 -34.981,-78.133 -78.132,-78.133 C 34.981,-78.133 0,-43.153 0,0 Z"
         id="path763" />
      <path
         transform="matrix(1,0,0,-1,296.7617,288.3445)"
         d="m 0,0 h -6.486 c 0,0 -1.08,-1.615 -1.08,-5.096 0,-3.778 1.08,-5.094 1.08,-5.094 H 0 Z"
         fill="#843024"
         fill-rule="evenodd"
         id="path765" />
      <path
         transform="matrix(1,0,0,-1,466.3621,275.8124)"
         d="m 0,0 c 0,0 -6.586,-20.714 -8.605,-24.241 l -3.409,1.019 7.806,23.188 z"
         fill="#515557"
         id="path767" />
      <path
         transform="matrix(1,0,0,-1,258.2585,330.7046)"
         stroke-width="0.827"
         stroke-linecap="butt"
         stroke-miterlimit="10"
         stroke-linejoin="miter"
         fill="none"
         stroke="#dddedd"
         d="M 0,0 1.758,-142.183"
         id="path769" />
      <path
         transform="matrix(1,0,0,-1,246.7425,331.4114)"
         stroke-width="0.827"
         stroke-linecap="butt"
         stroke-miterlimit="10"
         stroke-linejoin="miter"
         fill="none"
         stroke="#dddedd"
         d="M 0,0 22.573,-140.589"
         id="path771" />
      <path
         transform="matrix(1,0,0,-1,236.586,333.8184)"
         stroke-width="0.827"
         stroke-linecap="butt"
         stroke-miterlimit="10"
         stroke-linejoin="miter"
         fill="none"
         stroke="#dddedd"
         d="M 0,0 42.9,-135.771"
         id="path773" />
      <path
         transform="matrix(1,0,0,-1,226.8907,337.6843)"
         stroke-width="0.827"
         stroke-linecap="butt"
         stroke-miterlimit="10"
         stroke-linejoin="miter"
         fill="none"
         stroke="#dddedd"
         d="M 0,0 62.305,-128.033"
         id="path775" />
      <path
         transform="matrix(1,0,0,-1,217.8651,342.9273)"
         stroke-width="0.827"
         stroke-linecap="butt"
         stroke-miterlimit="10"
         stroke-linejoin="miter"
         fill="none"
         stroke="#dddedd"
         d="M 0,0 80.368,-117.537"
         id="path777" />
      <path
         transform="matrix(1,0,0,-1,209.7046,349.43519)"
         stroke-width="0.827"
         stroke-linecap="butt"
         stroke-miterlimit="10"
         stroke-linejoin="miter"
         fill="none"
         stroke="#dddedd"
         d="M 0,0 96.702,-104.514"
         id="path779" />
      <path
         transform="matrix(1,0,0,-1,202.5835,357.0667)"
         stroke-width="0.827"
         stroke-linecap="butt"
         stroke-miterlimit="10"
         stroke-linejoin="miter"
         fill="none"
         stroke="#dddedd"
         d="M 0,0 110.954,-89.24"
         id="path781" />
      <path
         transform="matrix(1,0,0,-1,196.6556,365.6586)"
         stroke-width="0.827"
         stroke-linecap="butt"
         stroke-miterlimit="10"
         stroke-linejoin="miter"
         fill="none"
         stroke="#dddedd"
         d="M 0,0 122.818,-72.043"
         id="path783" />
      <path
         transform="matrix(1,0,0,-1,192.0499,375.0251)"
         stroke-width="0.827"
         stroke-linecap="butt"
         stroke-miterlimit="10"
         stroke-linejoin="miter"
         fill="none"
         stroke="#dddedd"
         d="M 0,0 132.037,-53.297"
         id="path785" />
      <path
         transform="matrix(1,0,0,-1,188.8633,384.9628)"
         stroke-width="0.827"
         stroke-linecap="butt"
         stroke-miterlimit="10"
         stroke-linejoin="miter"
         fill="none"
         stroke="#dddedd"
         d="M 0,0 138.414,-33.407"
         id="path787" />
      <path
         transform="matrix(1,0,0,-1,187.1646,395.2622)"
         stroke-width="0.827"
         stroke-linecap="butt"
         stroke-miterlimit="10"
         stroke-linejoin="miter"
         fill="none"
         stroke="#dddedd"
         d="M 0,0 141.812,-12.792"
         id="path789" />
      <path
         transform="matrix(1,0,0,-1,186.9926,405.699)"
         stroke-width="0.827"
         stroke-linecap="butt"
         stroke-miterlimit="10"
         stroke-linejoin="miter"
         fill="none"
         stroke="#dddedd"
         d="M 0,0 142.158,8.096"
         id="path791" />
      <path
         transform="matrix(1,0,0,-1,188.3471,416.04853)"
         stroke-width="0.827"
         stroke-linecap="butt"
         stroke-miterlimit="10"
         stroke-linejoin="miter"
         fill="none"
         stroke="#dddedd"
         d="M 0,0 139.445,28.81"
         id="path793" />
      <path
         transform="matrix(1,0,0,-1,191.2025,426.0879)"
         stroke-width="0.827"
         stroke-linecap="butt"
         stroke-miterlimit="10"
         stroke-linejoin="miter"
         fill="none"
         stroke="#dddedd"
         d="M 0,0 133.729,48.902"
         id="path795" />
      <path
         transform="matrix(1,0,0,-1,195.498,435.6005)"
         stroke-width="0.827"
         stroke-linecap="butt"
         stroke-miterlimit="10"
         stroke-linejoin="miter"
         fill="none"
         stroke="#dddedd"
         d="M 0,0 125.134,67.943"
         id="path797" />
      <path
         transform="matrix(1,0,0,-1,201.1369,444.3839)"
         stroke-width="0.827"
         stroke-linecap="butt"
         stroke-miterlimit="10"
         stroke-linejoin="miter"
         fill="none"
         stroke="#dddedd"
         d="M 0,0 113.846,85.521"
         id="path799" />
      <path
         transform="matrix(1,0,0,-1,208.0011,452.2472)"
         stroke-width="0.827"
         stroke-linecap="butt"
         stroke-miterlimit="10"
         stroke-linejoin="miter"
         fill="none"
         stroke="#dddedd"
         d="M 0,0 100.107,101.26"
         id="path801" />
      <path
         transform="matrix(1,0,0,-1,215.9418,459.0209)"
         stroke-width="0.827"
         stroke-linecap="butt"
         stroke-miterlimit="10"
         stroke-linejoin="miter"
         fill="none"
         stroke="#dddedd"
         d="M 0,0 84.214,114.815"
         id="path803" />
      <path
         transform="matrix(1,0,0,-1,224.7915,464.5603)"
         stroke-width="0.827"
         stroke-linecap="butt"
         stroke-miterlimit="10"
         stroke-linejoin="miter"
         fill="none"
         stroke="#dddedd"
         d="M 0,0 66.504,125.902"
         id="path805" />
      <path
         transform="matrix(1,0,0,-1,234.3518,468.746)"
         stroke-width="0.827"
         stroke-linecap="butt"
         stroke-miterlimit="10"
         stroke-linejoin="miter"
         fill="none"
         stroke="#dddedd"
         d="M 0,0 47.369,134.28"
         id="path807" />
      <path
         transform="matrix(1,0,0,-1,245.5188,471.6902)"
         stroke-width="0.827"
         stroke-linecap="butt"
         stroke-miterlimit="10"
         stroke-linejoin="miter"
         fill="none"
         stroke="#dddedd"
         d="M 0,0 25.018,140.172"
         id="path809" />
      <path
         transform="matrix(1,0,0,-1,258.7559,467.5821)"
         d="m 0,0 c 38.014,0.469 68.449,31.666 67.979,69.681 -0.47,38.012 -31.667,68.448 -69.68,67.977 C -39.714,137.187 -70.148,105.992 -69.678,67.98 -69.209,29.964 -38.012,-0.47 0,0 m -1.854,150.01 c 44.836,0.555 81.631,-35.343 82.185,-80.176 0.554,-44.836 -35.343,-81.632 -80.176,-82.186 -44.835,-0.554 -81.632,35.344 -82.186,80.179 -0.555,44.833 35.344,81.629 80.177,82.183"
         fill="#2c2f31"
         id="path811" />
      <path
         transform="matrix(1,0,0,-1,330.5024,397.8542)"
         stroke-width="4.136"
         stroke-linecap="butt"
         stroke-miterlimit="10"
         stroke-linejoin="miter"
         fill="none"
         stroke="#dddedd"
         d="m 0,0 c -0.495,40.094 -33.4,72.195 -73.493,71.698 -40.096,-0.494 -72.197,-33.399 -71.702,-73.494 0.496,-40.094 33.402,-72.195 73.496,-71.699 C -31.605,-72.999 0.496,-40.096 0,0 Z"
         id="path813" />
      <path
         transform="matrix(1,0,0,-1,519.1283,328.1724)"
         stroke-width="0.827"
         stroke-linecap="butt"
         stroke-miterlimit="10"
         stroke-linejoin="miter"
         fill="none"
         stroke="#dddedd"
         d="M 0,0 V -142.265"
         id="path815" />
      <path
         transform="matrix(1,0,0,-1,508.2408,328.6263)"
         stroke-width="0.827"
         stroke-linecap="butt"
         stroke-miterlimit="10"
         stroke-linejoin="miter"
         fill="none"
         stroke="#dddedd"
         d="M 0,0 20.834,-140.856"
         id="path817" />
      <path
         transform="matrix(1,0,0,-1,498.0545,330.90663)"
         stroke-width="0.827"
         stroke-linecap="butt"
         stroke-miterlimit="10"
         stroke-linejoin="miter"
         fill="none"
         stroke="#dddedd"
         d="M 0,0 41.22,-136.292"
         id="path819" />
      <path
         transform="matrix(1,0,0,-1,488.3124,334.6529)"
         stroke-width="0.827"
         stroke-linecap="butt"
         stroke-miterlimit="10"
         stroke-linejoin="miter"
         fill="none"
         stroke="#dddedd"
         d="M 0,0 60.718,-128.793"
         id="path821" />
      <path
         transform="matrix(1,0,0,-1,479.2229,339.7836)"
         stroke-width="0.827"
         stroke-linecap="butt"
         stroke-miterlimit="10"
         stroke-linejoin="miter"
         fill="none"
         stroke="#dddedd"
         d="M 0,0 78.909,-118.523"
         id="path823" />
      <path
         transform="matrix(1,0,0,-1,470.9815,346.1906)"
         stroke-width="0.827"
         stroke-linecap="butt"
         stroke-miterlimit="10"
         stroke-linejoin="miter"
         fill="none"
         stroke="#dddedd"
         d="M 0,0 95.404,-105.701"
         id="path825" />
      <path
         transform="matrix(1,0,0,-1,463.7677,353.73323)"
         stroke-width="0.827"
         stroke-linecap="butt"
         stroke-miterlimit="10"
         stroke-linejoin="miter"
         fill="none"
         stroke="#dddedd"
         d="M 0,0 109.843,-90.605"
         id="path827" />
      <path
         transform="matrix(1,0,0,-1,457.7339,362.2515)"
         stroke-width="0.827"
         stroke-linecap="butt"
         stroke-miterlimit="10"
         stroke-linejoin="miter"
         fill="none"
         stroke="#dddedd"
         d="M 0,0 121.918,-73.554"
         id="path829" />
      <path
         transform="matrix(1,0,0,-1,453.0119,371.56)"
         stroke-width="0.827"
         stroke-linecap="butt"
         stroke-miterlimit="10"
         stroke-linejoin="miter"
         fill="none"
         stroke="#dddedd"
         d="M 0,0 131.369,-54.924"
         id="path831" />
      <path
         transform="matrix(1,0,0,-1,449.7026,381.458)"
         stroke-width="0.827"
         stroke-linecap="butt"
         stroke-miterlimit="10"
         stroke-linejoin="miter"
         fill="none"
         stroke="#dddedd"
         d="M 0,0 137.99,-35.115"
         id="path833" />
      <path
         transform="matrix(1,0,0,-1,447.8778,391.7355)"
         stroke-width="0.827"
         stroke-linecap="butt"
         stroke-miterlimit="10"
         stroke-linejoin="miter"
         fill="none"
         stroke="#dddedd"
         d="M 0,0 141.643,-14.544"
         id="path835" />
      <path
         transform="matrix(1,0,0,-1,447.5758,402.1691)"
         stroke-width="0.827"
         stroke-linecap="butt"
         stroke-miterlimit="10"
         stroke-linejoin="miter"
         fill="none"
         stroke="#dddedd"
         d="M 0,0 142.248,6.339"
         id="path837" />
      <path
         transform="matrix(1,0,0,-1,448.8036,412.5348)"
         stroke-width="0.827"
         stroke-linecap="butt"
         stroke-miterlimit="10"
         stroke-linejoin="miter"
         fill="none"
         stroke="#dddedd"
         d="M 0,0 139.789,27.083"
         id="path839" />
      <path
         transform="matrix(1,0,0,-1,451.5353,422.6081)"
         stroke-width="0.827"
         stroke-linecap="butt"
         stroke-miterlimit="10"
         stroke-linejoin="miter"
         fill="none"
         stroke="#dddedd"
         d="M 0,0 134.321,47.245"
         id="path841" />
      <path
         transform="matrix(1,0,0,-1,455.7121,432.1742)"
         stroke-width="0.827"
         stroke-linecap="butt"
         stroke-miterlimit="10"
         stroke-linejoin="miter"
         fill="none"
         stroke="#dddedd"
         d="M 0,0 125.962,66.391"
         id="path843" />
      <path
         transform="matrix(1,0,0,-1,461.2411,441.02613)"
         stroke-width="0.827"
         stroke-linecap="butt"
         stroke-miterlimit="10"
         stroke-linejoin="miter"
         fill="none"
         stroke="#dddedd"
         d="M 0,0 114.895,84.108"
         id="path845" />
      <path
         transform="matrix(1,0,0,-1,468.0083,448.9726)"
         stroke-width="0.827"
         stroke-linecap="butt"
         stroke-miterlimit="10"
         stroke-linejoin="miter"
         fill="none"
         stroke="#dddedd"
         d="M 0,0 101.351,100.013"
         id="path847" />
      <path
         transform="matrix(1,0,0,-1,475.8651,455.8448)"
         stroke-width="0.827"
         stroke-linecap="butt"
         stroke-miterlimit="10"
         stroke-linejoin="miter"
         fill="none"
         stroke="#dddedd"
         d="M 0,0 85.625,113.766"
         id="path849" />
      <path
         transform="matrix(1,0,0,-1,484.6428,461.4925)"
         stroke-width="0.827"
         stroke-linecap="butt"
         stroke-miterlimit="10"
         stroke-linejoin="miter"
         fill="none"
         stroke="#dddedd"
         d="M 0,0 68.056,125.07"
         id="path851" />
      <path
         transform="matrix(1,0,0,-1,494.1523,465.7962)"
         stroke-width="0.827"
         stroke-linecap="butt"
         stroke-miterlimit="10"
         stroke-linejoin="miter"
         fill="none"
         stroke="#dddedd"
         d="M 0,0 49.024,133.683"
         id="path853" />
      <path
         transform="matrix(1,0,0,-1,505.2829,468.8793)"
         stroke-width="0.827"
         stroke-linecap="butt"
         stroke-miterlimit="10"
         stroke-linejoin="miter"
         fill="none"
         stroke="#dddedd"
         d="M 0,0 26.75,139.853"
         id="path855" />
      <path
         transform="matrix(1,0,0,-1,518.1517,468.61433)"
         d="m 0,0 c 38.016,0 68.835,30.819 68.835,68.836 0,38.017 -30.819,68.834 -68.835,68.834 -38.016,0 -68.835,-30.817 -68.835,-68.834 C -68.835,30.819 -38.016,0 0,0 m 0,150.023 c 44.839,0 81.189,-36.348 81.189,-81.187 0,-44.838 -36.35,-81.188 -81.189,-81.188 -44.839,0 -81.188,36.35 -81.188,81.188 0,44.839 36.349,81.187 81.188,81.187"
         fill="#2c2f31"
         id="path857" />
      <path
         transform="matrix(1,0,0,-1,590.7544,399.7782)"
         stroke-width="4.136"
         stroke-linecap="butt"
         stroke-miterlimit="10"
         stroke-linejoin="miter"
         fill="none"
         stroke="#dddedd"
         d="m 0,0 c 0,40.098 -32.505,72.603 -72.602,72.603 -40.098,0 -72.604,-32.505 -72.604,-72.603 0,-40.099 32.506,-72.603 72.604,-72.603 C -32.505,-72.603 0,-40.099 0,0 Z"
         id="path859" />
      <path
         transform="matrix(1,0,0,-1,307.2832,316.4666)"
         d="M 0,0 1.97,1.962 C 1.765,2.173 -3.076,7.242 -1.654,17.47 l -2.753,0.38 C -6.029,6.184 -0.246,0.25 0,0"
         fill="#fbad47"
         id="path861" />
      <path
         transform="matrix(1,0,0,-1,308.9027,294.4817)"
         d="m 0,0 c 0,0 1.527,7.38 -14.841,9.711 0,0 -6.716,-9.403 -1.274,-16.814 0,0 13.663,-3.399 16.115,7.103"
         fill="#fbad47"
         id="path863" />
      <path
         transform="matrix(1,0,0,-1,527.6403,403.5584)"
         d="m 0,0 21.129,95.813 -5.43,1.198 -18.707,-84.835 -70.485,83.432 -4.249,-3.586 z"
         fill="#fbad47"
         id="path865" />
      <path
         transform="matrix(1,0,0,-1,544.072,300.0534)"
         d="M 0,0 -0.92,-5.189 C -1.155,-6.54 -0.256,-7.821 1.088,-8.06 l 2.037,-0.362 c 1.346,-0.235 2.631,0.659 2.867,2.007 l 0.92,5.192"
         fill="#fbad47"
         fill-rule="evenodd"
         id="path867" />
      <path
         transform="matrix(1,0,0,-1,548.0735,304.6963)"
         d="M 0,0 C 0.118,0.676 -0.33,1.32 -1.007,1.439 -1.677,1.556 -2.321,1.107 -2.44,0.436 -2.56,-0.242 -2.111,-0.883 -1.437,-1.004 -0.762,-1.122 -0.117,-0.672 0,0"
         fill="#fbad47"
         fill-rule="evenodd"
         id="path869" />
      <path
         transform="matrix(1,0,0,-1,443.298,411.2384)"
         d="M 0,0 82.639,11.933 82.109,15.602 -0.53,3.669 Z"
         fill="#75797a"
         id="path871" />
      <path
         transform="matrix(1,0,0,-1,268.2445,398.4527)"
         d="m 0,0 c -0.012,5.058 -4.123,9.15 -9.184,9.14 -5.061,-0.013 -9.15,-4.124 -9.139,-9.182 0.011,-5.061 4.122,-9.153 9.181,-9.142 C -4.082,-9.171 0.012,-5.06 0,0"
         fill="#75797a"
         fill-rule="evenodd"
         id="path873" />
      <path
         transform="matrix(1,0,0,-1,263.0426,398.4649)"
         d="M 0,0 C -0.006,2.213 -1.782,4.002 -3.97,3.997 -6.156,3.993 -7.926,2.192 -7.921,-0.019 -7.916,-2.232 -6.137,-4.025 -3.95,-4.02 -1.763,-4.014 0.004,-2.212 0,0"
         fill="#515557"
         fill-rule="evenodd"
         id="path875" />
      <path
         transform="matrix(1,0,0,-1,425.9664,388.944)"
         d="M 0,0 32.829,89.175 27.613,91.097 -6.143,-0.596 Z"
         fill="#fbad47"
         id="path877" />
      <path
         transform="matrix(1,0,0,-1,426.6086,376.9039)"
         d="m 0,0 1.547,5.339 c -0.348,0.101 -35.275,10.396 -63.22,32.031 -27.352,21.179 -28.904,80.843 -28.916,81.443 l -5.557,-0.113 c 0.011,-0.639 0.369,-15.815 4.287,-33.984 5.333,-24.7 14.342,-42.108 26.783,-51.743 C -36.268,10.672 -1.467,0.425 0,0"
         fill="#fbad47"
         id="path879" />
      <path
         transform="matrix(1,0,0,-1,357.7796,352.2445)"
         d="M 0,0 6.039,7.179 1.784,10.757 -4.254,3.579 Z"
         fill="#fbad47"
         id="path881" />
      <path
         transform="matrix(1,0,0,-1,400.4556,405.6626)"
         d="m 0,0 4.17,3.674 -86.554,98.189 -4.17,-3.674 z"
         fill="#fbad47"
         id="path883" />
      <path
         transform="matrix(1,0,0,-1,466.1198,322.124)"
         d="m 0,0 c 4.237,3.182 21.685,15.234 27.898,15.923 8.188,0.911 78.007,5.806 78.711,5.858 l -0.389,5.544 C 103.339,27.124 35.582,22.37 27.283,21.449 18.445,20.468 -2.284,5.213 -3.965,3.949 Z"
         fill="#fbad47"
         id="path885" />
      <path
         transform="matrix(1,0,0,-1,262.4077,399.3954)"
         d="m 0,0 c 0.174,0.184 17.608,18.369 23.945,24.106 6.638,6.003 44.217,102.515 51.682,121.799 l -5.184,2.007 C 53.478,104.088 24.837,32.84 20.203,28.214 13.732,22.358 -3.292,4.6 -4.014,3.848 Z"
         fill="#fbad47"
         id="path887" />
      <path
         transform="matrix(1,0,0,-1,419.4682,367.8742)"
         d="m 0,0 c 0,0 -3.108,-36.551 0.278,-36.85 3.387,-0.294 3.719,1.113 3.387,6.456 C 3.331,-25.051 2.998,0 2.998,0 Z"
         fill="#5d6162"
         id="path889" />
      <path
         transform="matrix(1,0,0,-1,409.4151,365.8064)"
         d="m 0,0 c 0,-2.72 2.207,-3.722 4.925,-3.722 h 12.662 c 2.719,0 4.924,1.002 4.924,3.722 0,2.72 -2.205,3.722 -4.924,3.722 H 4.925 C 2.207,3.722 0,2.72 0,0"
         fill="#ec753e"
         id="path891" />
      <path
         transform="matrix(1,0,0,-1,417.8058,365.7119)"
         d="m 0,0 c 0,-0.994 -0.359,-2.162 0.637,-2.162 h 4.904 c 0.996,0 1.903,1.168 1.903,2.162 v 0.654 c 0,0.994 -0.907,1.32 -1.903,1.32 H 0.637 C -0.359,1.974 0,1.648 0,0.654 Z"
         fill="#b2594e"
         id="path893" />
      <path
         transform="matrix(1,0,0,-1,537.4187,421.0896)"
         stroke-width="0.827"
         stroke-linecap="butt"
         stroke-miterlimit="10"
         stroke-linejoin="miter"
         fill="none"
         stroke="#4c1e0b"
         d="m 0,0 c -7.25,-4.704 -103.616,-11.499 -129.521,0.793 -9.939,4.714 -18.903,41.632 32.907,37.006 51.81,-4.627 79.962,11.775 91.856,2.385 C 7.137,30.794 -4.361,25.771 -7.798,21.675 -11.232,17.577 12.424,8.062 0,0 Z"
         id="path895" />
      <path
         transform="matrix(1,0,0,-1,537.4187,421.0896)"
         stroke-width="2.481"
         stroke-linecap="round"
         stroke-dasharray="0, 5.752"
         stroke-linejoin="round"
         fill="none"
         stroke="#4c1e0b"
         d="m 0,0 c -7.25,-4.704 -103.616,-11.499 -129.521,0.793 -9.939,4.714 -18.903,41.632 32.907,37.006 51.81,-4.627 79.962,11.775 91.856,2.385 C 7.137,30.794 -4.361,25.771 -7.798,21.675 -11.232,17.577 12.424,8.062 0,0 Z"
         id="path897" />
      <path
         transform="matrix(1,0,0,-1,537.4187,421.0896)"
         stroke-width="0.827"
         stroke-linecap="butt"
         stroke-miterlimit="10"
         stroke-linejoin="miter"
         fill="none"
         stroke="#000000"
         d="m 0,0 c -7.25,-4.704 -103.616,-11.499 -129.521,0.793 -9.939,4.714 -18.903,41.632 32.907,37.006"
         id="path899" />
      <path
         transform="matrix(1,0,0,-1,423.3865,422.3884)"
         d="M 0,0 C 9.951,0 18.018,8.068 18.018,18.02 18.018,27.97 9.951,36.037 0,36.037 -9.95,36.037 -18.019,27.97 -18.019,18.02 -18.019,8.068 -9.95,0 0,0 m -25.832,20.192 c 0.037,0.413 0.08,0.825 0.133,1.234 2.464,-0.683 5.051,0.685 5.844,3.14 0.791,2.445 -0.487,5.056 -2.861,5.955 0.2,0.365 0.409,0.721 0.627,1.075 1.971,-1.631 4.893,-1.433 6.618,0.486 1.718,1.909 1.613,4.812 -0.186,6.603 0.33,0.25 0.666,0.491 1.008,0.727 1.138,-2.291 3.886,-3.301 6.242,-2.251 2.347,1.045 3.434,3.74 2.519,6.107 0.402,0.093 0.808,0.178 1.216,0.252 0.106,-2.555 2.206,-4.593 4.788,-4.593 2.566,0 4.656,2.017 4.785,4.552 0.359,-0.067 0.716,-0.146 1.072,-0.23 -0.931,-2.383 0.171,-5.096 2.534,-6.131 2.351,-1.035 5.076,-0.027 6.212,2.244 0.341,-0.235 0.676,-0.479 1.005,-0.73 -1.818,-1.798 -1.914,-4.723 -0.178,-6.631 1.727,-1.9 4.629,-2.091 6.591,-0.477 0.215,-0.351 0.422,-0.711 0.624,-1.075 -2.397,-0.9 -3.681,-3.537 -2.87,-5.989 0.803,-2.435 3.372,-3.789 5.819,-3.117 0.052,-0.409 0.095,-0.821 0.128,-1.236 -2.551,0.149 -4.79,-1.734 -5.047,-4.3 -0.258,-2.557 1.54,-4.839 4.052,-5.218 -0.119,-0.4 -0.248,-0.794 -0.385,-1.185 -2.27,1.181 -5.087,0.371 -6.369,-1.868 C 16.814,5.308 17.527,2.493 19.661,1.123 19.389,0.809 19.112,0.502 18.828,0.202 17.231,2.198 14.336,2.602 12.255,1.08 10.181,-0.438 9.686,-3.304 11.085,-5.424 10.71,-5.6 10.331,-5.77 9.947,-5.93 9.308,-3.451 6.821,-1.897 4.299,-2.442 1.789,-2.983 0.173,-5.394 0.579,-7.895 0.387,-7.9 0.194,-7.911 0,-7.911 c -0.222,0 -0.441,0.012 -0.663,0.017 0.419,2.522 -1.217,4.946 -3.739,5.475 -2.517,0.528 -4.98,-1.019 -5.621,-3.482 -0.384,0.162 -0.763,0.332 -1.137,0.512 1.417,2.133 0.91,5.019 -1.181,6.534 -2.082,1.503 -4.953,1.094 -6.545,-0.884 -0.282,0.301 -0.558,0.61 -0.828,0.926 2.155,1.374 2.865,4.213 1.571,6.442 -1.289,2.223 -4.083,3.019 -6.341,1.856 -0.137,0.39 -0.263,0.785 -0.381,1.184 2.532,0.376 4.339,2.681 4.065,5.247 -0.272,2.552 -2.498,4.415 -5.032,4.276"
         fill="#5d6162"
         id="path901" />
      <path
         transform="matrix(1,0,0,-1,445.4902,404.5834)"
         stroke-width="4.963"
         stroke-linecap="butt"
         stroke-miterlimit="10"
         stroke-linejoin="miter"
         fill="none"
         stroke="#45484a"
         d="m 0,0 c 0,12.206 -9.896,22.101 -22.1,22.101 -12.207,0 -22.1,-9.895 -22.1,-22.101 0,-12.206 9.893,-22.102 22.1,-22.102 C -9.896,-22.102 0,-12.206 0,0 Z"
         id="path903" />
      <path
         transform="matrix(1,0,0,-1,424.6902,443.1424)"
         d="M 0,0 C 0,0 3.108,36.205 -0.28,36.503 -3.667,36.8 -3.999,35.565 -3.667,30.222 -3.333,24.879 -3,0 -3,0 Z"
         fill="#5d6162"
         id="path905" />
      <path
         transform="matrix(1,0,0,-1,412.016,444.7417)"
         d="m 0,0 c 0,-2.574 2.576,-4.19 5.294,-4.19 h 12.487 c 2.719,0 4.551,1.616 4.551,4.19 v 0.249 c 0,2.576 -1.832,3.832 -4.551,3.832 H 5.294 C 2.576,4.081 0,2.825 0,0.249 Z"
         fill="#ec753e"
         id="path907" />
      <path
         transform="matrix(1,0,0,-1,418.6329,445.6181)"
         d="m 0,0 c 0,-1.007 1.182,-1.66 2.102,-1.66 h 4.626 c 0.92,0 1.543,0.653 1.543,1.66 v 0.6 c 0,1.005 -0.623,1.876 -1.543,1.876 H 2.102 C 1.182,2.476 0,1.605 0,0.6 Z"
         fill="#b2594e"
         id="path909" />
      <path
         transform="matrix(1,0,0,-1,486.8455,265.4153)"
         d="m 0,0 3.95,1.546 c 0,0 0.196,-2.078 -0.729,-3.884 -0.927,-1.809 -2.778,-8.817 -7.407,-9.523 -4.629,-0.705 -8.859,0.441 -12.167,0.309 -3.305,-0.133 -14.722,0.661 -18.16,0.574 -3.439,-0.089 -18.734,5.773 -17.898,8.374 0,0 3.713,-0.451 3.695,-0.447 -0.019,0.002 14.864,-6.828 41.752,-6.313 C -2.994,-9.287 -0.001,-7.93 0,0"
         fill="#45484a"
         id="path911" />
      <path
         transform="matrix(1,0,0,-1,461.8025,280.9286)"
         d="M 0,0 C 0.726,-1.003 2.661,-1.451 4.667,0.552 6.671,2.558 5.428,5.266 5.428,5.266 2.284,4.519 -2.905,5.807 -2.905,5.807 -2.905,5.807 -0.726,1.002 0,0 m 7.225,6.529 c 0,0 1.806,-3.934 -1.106,-6.846 -2.911,-2.91 -5.723,-2.259 -6.776,-0.803 -1.053,1.456 -4.216,8.433 -4.216,8.433 0,0 7.533,-1.871 12.098,-0.784"
         fill="#45484a"
         id="path913" />
      <path
         transform="matrix(1,0,0,-1,491.9755,255.6254)"
         d="m 0,0 c 0,0 7.405,1.252 7.303,-1.773 -0.106,-3.024 -3.444,-4.694 -9.91,-6.989 -6.468,-2.293 -14.394,-8.134 -20.341,-10.012 -5.945,-1.878 -20.651,3.755 -28.37,5.424 -7.72,1.668 -17.21,2.502 -17.21,4.38 0,1.877 3.025,11.891 26.911,5.111 C -17.731,-10.638 -6.779,-0.313 0,0"
         id="path915" />
      <path
         transform="matrix(1,0,0,-1,429.4728,404.3589)"
         d="m 0,0 -0.684,-2.456 10.017,-7.832 c 0,0 4.593,8.304 1.794,14.935 z"
         fill="#c1c3c3"
         id="path917" />
      <path
         transform="matrix(1,0,0,-1,417.8034,405.6505)"
         d="m 0,0 0.983,-2.353 -8.961,-9.02 c 0,0 -5.593,7.667 -3.644,14.595 z"
         fill="#c1c3c3"
         id="path919" />
      <path
         transform="matrix(1,0,0,-1,430.0915,405.186)"
         d="m 0,0 c 0,3.622 -2.935,6.557 -6.557,6.557 -3.622,0 -6.556,-2.935 -6.556,-6.557 0,-3.622 2.934,-6.557 6.556,-6.557 C -2.935,-6.557 0,-3.622 0,0"
         fill="#5d6162"
         id="path921" />
      <path
         transform="matrix(1,0,0,-1,427.2604,405.186)"
         d="m 0,0 c 0,2.058 -1.667,3.725 -3.725,3.725 -2.057,0 -3.726,-1.667 -3.726,-3.725 0,-2.058 1.669,-3.726 3.726,-3.726 C -1.667,-3.726 0,-2.058 0,0"
         fill="#2b2f31"
         id="path923" />
      <path
         transform="matrix(1,0,0,-1,534.8331,397.4713)"
         d="m 0,0 c 0,5.059 -4.102,9.163 -9.161,9.163 -5.059,0 -9.162,-4.104 -9.162,-9.163 0,-5.059 4.103,-9.16 9.162,-9.16 C -4.102,-9.16 0,-5.059 0,0"
         fill="#75797a"
         fill-rule="evenodd"
         id="path925" />
      <path
         transform="matrix(1,0,0,-1,529.6321,397.4713)"
         d="m 0,0 c 0,2.213 -1.773,4.007 -3.96,4.007 -2.189,0 -3.962,-1.794 -3.962,-4.007 0,-2.213 1.773,-4.011 3.962,-4.011 C -1.773,-4.011 0,-2.213 0,0"
         fill="#515557"
         fill-rule="evenodd"
         id="path927" />
      <path
         transform="matrix(1,0,0,-1,451.1201,298.2497)"
         d="m 0,0 c -0.309,-0.941 0.204,-1.954 1.146,-2.261 l 5.668,-1.857 c 0.941,-0.309 1.954,0.204 2.262,1.144 l 0.04,0.124 C 9.424,-1.911 8.911,-0.897 7.97,-0.589 L 2.302,1.267 C 1.361,1.576 0.348,1.063 0.04,0.122 Z"
         fill="#ec753e"
         id="path929" />
      <path
         transform="matrix(1,0,0,-1,331.5912,253.0698)"
         d="M 0,0 C 0,0 6.513,14.069 1.302,18.758 -3.908,23.449 -9.38,27.357 -4.691,35.173 0,42.989 9.576,53.11 9.576,53.11 l 5.602,-1.851 c 0,0 -15.959,-15.044 -14.396,-19.995 1.564,-4.95 9.379,-9.638 8.857,-15.371 C 9.119,10.16 5.211,-2.345 5.211,-2.345 Z"
         fill="#2c2f31"
         id="path931" />
      <path
         transform="matrix(1,0,0,-1,345.3421,201.57501)"
         d="m 0,0 c 0,0 18.062,-3.396 19.842,-3.835 1.762,-0.432 6.316,-2.837 5.248,-7.286 -0.946,-3.94 -4.268,-6.852 -8.184,-5.783 -3.917,1.068 -23.316,10.232 -23.316,10.232 0,0 4.822,6.938 6.41,6.672"
         fill="#ec753e"
         fill-rule="evenodd"
         id="path933" />
      <path
         transform="matrix(1,0,0,-1,335.1122,199.98291)"
         d="m 0,0 c 0,-2.531 2.02,-4.581 4.51,-4.581 2.491,0 4.51,2.05 4.51,4.581 0,2.53 -2.019,4.581 -4.51,4.581 C 2.02,4.581 0,2.53 0,0"
         fill="#767a7b"
         id="path935" />
      <path
         transform="matrix(1,0,0,-1,342.2372,197.1348)"
         d="m 0,0 c 0,-0.563 0.866,-1.021 1.934,-1.021 1.067,0 1.933,0.458 1.933,1.021 0,0.564 -0.866,1.021 -1.933,1.021 C 0.866,1.021 0,0.564 0,0"
         id="path937" />
      <path
         transform="matrix(1,0,0,-1,330.1486,252.08911)"
         d="m 0,0 c -0.309,-0.941 0.204,-1.954 1.146,-2.261 l 5.668,-1.857 c 0.94,-0.31 1.954,0.204 2.262,1.144 l 0.04,0.123 c 0.308,0.94 -0.205,1.954 -1.146,2.262 L 2.302,1.267 C 1.361,1.576 0.349,1.063 0.039,0.122 Z"
         fill="#ec753e"
         id="path939" />
      <path
         transform="matrix(1,0,0,-1,580.749,295.3306)"
         d="M 0,0 C 0,2.419 -1.96,4.379 -4.379,4.379 H -7.201 C -9.619,4.379 -11.58,2.419 -11.58,0 v -3.649 c 0,-2.419 1.961,-4.379 4.379,-4.379 h 2.822 c 2.419,0 4.379,1.96 4.379,4.379 z"
         fill="#ec753e"
         id="path941" />
      <path
         transform="matrix(1,0,0,-1,332.7762,255.4632)"
         d="M 0,0 C -0.184,0.912 -24.341,-59.243 -23.823,-59.363 -23.305,-59.483 0.184,-0.912 0,0"
         fill="#ffffff"
         fill-rule="evenodd"
         id="path943" />
      <path
         transform="matrix(1,0,0,-1,337.575,204.93109)"
         d="m 0,0 c 0,0 -10.753,-12.407 -11.58,-17.37 -0.827,-4.962 4.467,-8.584 4.467,-8.584 0,0 -4.467,3.622 -3.64,8.584 C -9.925,-12.407 0,0 0,0"
         fill="#ffffff"
         fill-rule="evenodd"
         id="path945" />
      <path
         transform="matrix(1,0,0,-1,407.6627,365.6586)"
         d="M 0,0 C 0,0 -39.484,12.672 -52.971,35.74 -42.793,17.635 0,0 0,0"
         fill="#ffffff"
         fill-rule="evenodd"
         id="path947" />
      <path
         transform="matrix(1,0,0,-1,282.5471,322.2864)"
         d="m 0,0 c 0,0 -34.393,11.382 -65.778,-7.591 -31.385,-18.973 -35.52,-49.576 -35.52,-49.576 0,0 4.997,30.529 36.411,48.763 C -33.474,9.83 0,0 0,0"
         fill="#ffffff"
         fill-rule="evenodd"
         id="path949" />
      <path
         transform="matrix(1,0,0,-1,307.7985,292.6061)"
         d="M 0,0 C 0,0 -2.481,5.79 -12.407,6.617 -1.654,3.308 0,0 0,0"
         fill="#ffffff"
         fill-rule="evenodd"
         id="path951" />
      <path
         transform="matrix(1,0,0,-1,260.6526,390.20649)"
         d="M 0,0 C 0,0 -4.963,0 -7.444,-2.481 -9.925,-4.963 -9.82,-7.719 -9.82,-7.719 -9.695,-7.453 -9.925,-5.79 -7.444,-3.308 -4.963,-0.827 -1.384,-0.237 0,0"
         fill="#ffffff"
         fill-rule="evenodd"
         id="path953" />
      <path
         transform="matrix(1,0,0,-1,423.5957,381.4595)"
         d="m 0,0 c -1.735,0.096 -8.547,0.27 -14.888,-4.611 -6.352,-4.89 -7.922,-11.535 -8.271,-13.234 0.52,1.408 1.654,6.617 8.271,12.407 C -8.271,0.352 -2.095,-0.29 0,0"
         fill="#ffffff"
         fill-rule="evenodd"
         id="path955" />
      <path
         transform="matrix(1,0,0,-1,390.4502,300.0041)"
         d="M 0,0 60.569,-103.954"
         fill="#ffffff"
         fill-rule="evenodd"
         id="path957" />
      <path
         transform="matrix(1,0,0,-1,442.7997,408.7457)"
         d="M 0,0 16.437,9.576 -44.13,113.53 -60.569,103.954 Z"
         fill="#76c14b"
         id="path959" />
      <path
         transform="matrix(1,0,0,-1,238.1627,321.6547)"
         d="m 0,0 9.892,6.625 85.674,-123.398 15.625,10.852 -85.492,123.15 9.769,6.543 -29.62,5.848 z"
         fill="#76c14b"
         fill-rule="evenodd"
         id="path961" />
      <path
         transform="matrix(1,0,0,-1,-144.274,98.7731)"
         d="M 0,0 C 1.419,11.863 13.701,23.576 28.561,22.891 46.332,22.073 58.266,7.758 57.009,-9.56 56.217,-20.477 44.646,-33.937 35.902,-33.657 51.619,-26.851 55.723,-14.309 54.275,-3.365 52.612,9.203 42.981,18.547 30.895,20.036 19.531,21.437 6.139,16.632 0,0 M 47.241,-6.686 C 47.247,-17.528 38.489,-26.329 27.664,-26.359 17.011,-26.389 7.916,-17.28 8.009,-6.677 8.102,3.975 17.167,12.922 27.821,12.878 38.335,12.835 47.235,3.869 47.241,-6.686 M -68.477,6.48 c 1.784,27.984 21.152,62.136 57.691,77.958 38.773,16.787 84.772,6.459 112.455,-24.776 27.821,-31.391 33.033,-77.688 12.735,-113.476 -7.75,-13.664 -18.2,-24.818 -31.112,-33.799 -13.682,-9.519 -36.136,-16.044 -43.001,-15.113 44.28,6.6 85.998,46.725 81.65,103.732 C 118.681,43.73 84.255,84.794 32.545,87.855 -18.576,90.882 -60.398,54.681 -68.477,6.48 m 134.26,92.821 c 0.035,0.524 0.427,1.59 0.073,2.261 -0.474,0.895 -1.425,1.765 -2.365,2.109 -0.671,0.244 -1.714,-0.3 -2.491,-0.69 -0.361,-0.18 -0.466,-0.842 -0.721,-1.266 -3.081,-5.138 -5.58,-6.303 -10.828,-5.058 -4.274,1.014 -6.399,3.718 -6.634,9.141 -0.105,2.406 -1.11,3.324 -3.25,2.956 -0.826,-0.142 -1.58,-0.999 -2.247,-1.652 -0.316,-0.31 -0.315,-0.921 -0.516,-1.369 -1.464,-3.252 -2.684,-6.761 -7.187,-6.827 -7.861,-0.114 -7.563,1.47 -10.339,6.885 -0.551,1.075 -0.991,2.601 -1.897,3.02 -2.089,0.965 -3.727,-0.273 -4.028,-2.602 -0.064,-0.491 -0.034,-0.996 -0.12,-1.482 -1.021,-5.792 -2.466,-7.074 -9.281,-8.267 -2.949,-0.517 -5.733,1.355 -7.949,5.46 -0.732,1.354 -1.315,2.699 -3.278,2.263 -1.712,-0.381 -2.974,-0.951 -2.589,-3.128 0.222,-1.256 0.165,-2.574 0.126,-3.86 -0.097,-3.085 -1.157,-5.319 -4.401,-6.567 -6.237,-2.399 -7.576,-2.292 -12.235,2.877 -1.204,1.336 -2.191,1.63 -3.817,0.72 -1.681,-0.94 -1.84,-1.987 -1.193,-3.645 0.494,-1.268 0.662,-2.677 0.882,-4.037 0.424,-2.617 -0.178,-4.594 -2.645,-6.252 -6.193,-4.161 -6.826,-4.355 -12.999,-0.108 -1.549,1.066 -2.964,1.087 -3.844,-0.32 -0.574,-0.92 -0.479,-2.458 -0.241,-3.63 0.246,-1.223 1.107,-2.308 1.549,-3.509 0.998,-2.711 1.07,-5.254 -1.69,-7.098 -0.162,-0.109 -0.286,-0.274 -0.421,-0.42 -4.47,-4.839 -5.57,-5.095 -11.653,-2.247 -1.606,0.753 -2.683,0.739 -3.782,-0.823 -1.034,-1.473 -1.112,-2.644 0.203,-3.923 0.777,-0.756 1.543,-1.562 2.135,-2.463 1.666,-2.541 2.221,-4.904 0.262,-7.872 -4.082,-6.182 -4.071,-6.32 -11.742,-5.25 -0.915,0.128 -2.259,-0.687 -2.934,-1.47 -0.991,-1.151 -1.043,-2.57 0.588,-3.496 0.172,-0.097 0.34,-0.207 0.497,-0.328 5.536,-4.312 6.556,-9.438 2.073,-14.725 -1.431,-1.687 -4.776,-1.967 -7.328,-2.406 -1.561,-0.267 -3.125,0.335 -3.565,-1.981 -0.426,-2.233 0.461,-3.317 2.486,-3.929 0.83,-0.25 1.603,-0.775 2.33,-1.277 2.316,-1.605 3.548,-3.38 3.149,-6.663 -0.828,-6.844 0.079,-7.497 -8.547,-9.746 -1.992,-0.518 -1.907,-1.561 -1.921,-2.968 -0.013,-1.394 0.082,-2.587 1.965,-2.636 0.866,-0.023 1.756,-0.324 2.579,-0.642 2.906,-1.124 5.148,-2.301 5.44,-6.294 0.551,-7.535 0.721,-7.933 -6.077,-11.096 -1.437,-0.668 -2.203,-1.454 -1.781,-3.201 0.403,-1.664 1.041,-2.729 2.961,-2.558 0.983,0.087 1.998,0.111 2.973,-0.021 2.873,-0.39 5.459,-1.194 5.862,-4.716 0.066,-0.576 0.34,-1.129 0.522,-1.692 1.787,-5.534 1.421,-6.785 -3.361,-10.41 -1.349,-1.023 -2.469,-1.818 -1.6,-3.843 0.904,-2.106 2.224,-2.171 4.059,-1.53 0.824,0.289 1.75,0.372 2.633,0.387 2.641,0.044 5.207,-0.076 6.165,-3.291 0.22,-0.737 0.767,-1.379 1.167,-2.062 2.762,-4.722 2.653,-6.554 -1.248,-10.534 -1.734,-1.768 -1.747,-3.268 -0.069,-4.768 0.557,-0.498 1.699,-0.61 2.509,-0.484 0.945,0.146 1.801,0.796 2.727,1.142 3.15,1.178 5.993,1.176 7.988,-2.117 0.406,-0.671 0.971,-1.251 1.497,-1.844 3.219,-3.639 3.413,-5.526 0.818,-9.818 -0.904,-1.496 -1.917,-2.771 -0.061,-4.369 1.663,-1.431 2.917,-1.043 4.418,0.221 0.964,0.812 2.196,1.333 3.357,1.882 1.917,0.907 3.749,1.136 5.408,-0.673 0.724,-0.791 1.708,-1.348 2.59,-1.99 4.151,-3.024 4.686,-4.69 2.929,-9.722 -0.538,-1.542 -1.237,-2.89 0.731,-4.055 1.991,-1.177 3.215,-0.533 4.555,1.062 1,1.193 2.246,2.379 3.637,2.983 1.186,0.516 2.768,0.404 4.112,0.185 1.13,-0.184 2.17,-0.921 3.249,-1.418 5.063,-2.329 5.742,-3.474 4.961,-9.087 -0.31,-2.226 0.161,-3.815 2.624,-3.896 0.857,-0.028 1.913,0.572 2.571,1.204 0.833,0.802 1.348,1.931 2.008,2.915 1.722,2.562 3.9,3.841 7.029,2.528 0.449,-0.188 0.964,-0.219 1.447,-0.325 5.697,-1.247 7.006,-2.644 7.495,-8.626 0.136,-1.661 0.501,-2.559 2.286,-2.729 1.836,-0.176 3.036,0.24 3.48,2.233 0.255,1.139 0.776,2.238 1.304,3.293 1.228,2.456 2.821,4.331 6.014,3.428 0.553,-0.155 1.186,-0.029 1.78,-0.03 5.445,-0.001 7.234,-1.306 8.799,-6.517 0.425,-1.413 0.406,-2.887 2.728,-2.591 2.047,0.26 3.047,0.844 3.003,3.038 -0.023,1.148 0.419,2.32 0.734,3.458 0.744,2.671 2.037,4.751 5.262,4.636 0.287,-0.009 0.58,0.123 0.87,0.184 6.354,1.347 7.529,0.874 10.885,-4.916 0.889,-1.534 1.639,-2.065 3.511,-1.5 2.006,0.608 2.05,1.766 1.887,3.361 -0.119,1.178 -0.239,2.384 -0.116,3.552 0.294,2.777 1.195,4.81 4.33,5.965 7.262,2.678 7.212,2.937 12.651,-2.643 1.247,-1.279 2.508,-1.394 3.583,-0.277 0.727,0.754 1.071,2.026 1.234,3.119 0.102,0.695 -0.488,1.475 -0.689,2.236 -1.141,4.297 -0.529,6 3.034,8.564 5.86,4.214 6.216,4.229 12.4,-0.141 1.315,-0.927 2.336,-1.15 3.602,0.17 1.152,1.203 1.896,2.149 0.684,3.789 -0.809,1.094 -1.353,2.417 -1.844,3.703 -1.028,2.694 -0.788,4.879 1.611,7.117 5.575,5.198 5.449,5.39 12.43,2.51 1.577,-0.651 2.922,-0.518 3.461,1.004 0.38,1.07 0.167,2.522 -0.229,3.646 -0.339,0.966 -1.376,1.664 -1.994,2.557 -1.883,2.722 -2.166,5.202 -0.348,8.432 3.388,6.021 5.183,5.838 11.689,4.687 1.478,-0.261 2.458,-0.366 3.028,1.279 0.501,1.452 1.171,2.834 -0.671,3.848 -0.344,0.19 -0.637,0.469 -0.956,0.705 -3.825,2.831 -5.258,5.584 -4.317,8.295 2.392,6.889 4.455,8.778 10.08,8.44 2.187,-0.13 3.289,0.247 3.806,2.483 0.545,2.353 -1.086,2.578 -2.534,3.204 -5.889,2.542 -8.28,7.485 -5.332,13.169 1.125,2.174 4.644,3.3 7.277,4.426 1.555,0.665 3.158,0.484 3.2,2.945 0.043,2.618 -1.603,2.767 -3.385,3.141 -6.31,1.325 -9.283,5.484 -7.905,11.642 0.73,3.265 3.651,4.767 6.525,5.976 1.594,0.671 2.808,1.357 2.326,3.461 -0.36,1.573 -0.971,2.547 -2.752,2.329 -0.488,-0.06 -0.992,-0.014 -1.487,-0.003 -5.725,0.123 -7.474,1.601 -9.499,8.022 -0.892,2.828 0.676,6.006 4.255,8.61 0.4,0.291 1.026,0.479 1.179,0.862 0.419,1.046 1.147,2.383 0.802,3.206 -0.361,0.866 -1.761,1.53 -2.829,1.795 -0.871,0.219 -1.923,-0.273 -2.893,-0.461 -5.345,-1.042 -7.967,2.12 -9.976,6.362 -1.554,3.28 0.279,5.686 1.919,8.155 0.49,0.736 1.087,1.427 1.741,2.023 1.216,1.107 1.243,2.408 0.1,3.294 -0.912,0.707 -2.268,0.899 -3.463,1.145 -0.382,0.08 -0.857,-0.47 -1.325,-0.599 -3.14,-0.857 -6.359,-2.711 -9.264,0.509 -4.681,5.189 -5.106,7.48 -2.348,12.439 0.288,0.519 0.856,1.018 0.861,1.531 0.011,1.032 0.073,2.564 -0.524,2.987 -0.893,0.632 -2.342,0.637 -3.546,0.601 -0.577,-0.017 -1.122,-0.754 -1.702,-1.135 -3.873,-2.535 -6.835,-2.86 -9.21,-1.023 -5.401,4.18 -6.175,6.27 -4.509,11.613 0.36,1.153 0.822,2.642 0.393,3.595 -0.872,1.939 -3.362,1.989 -4.893,0.392 -0.137,-0.143 -0.249,-0.311 -0.39,-0.45 -2.38,-2.363 -4.867,-5.25 -8.54,-4.027 -6.845,2.28 -7.919,4.08 -7.738,10.747"
         fill="#231f20"
         id="path963" />
      <path
         transform="matrix(1,0,0,-1,411.4045,335.4961)"
         d="M 0,0 60.569,-103.953"
         fill="#ffffff"
         fill-rule="evenodd"
         id="path965" />
      <path
         transform="matrix(1,0,0,-1,463.754,444.2377)"
         d="M 0,0 16.437,9.577 -44.13,113.53 -60.569,103.954 Z"
         fill="#76c14b"
         id="path967" />
    </g>
  </g>
</svg>
