<?xml version="1.0" encoding="UTF-8" standalone="no"?>
<svg
   width="54px"
   height="54px"
   viewBox="0 0 54 54"
   version="1.1"
   id="svg2388"
   sodipodi:docname="logo-mobile.svg"
   inkscape:version="1.2 (dc2aedaf03, 2022-05-15)"
   inkscape:export-filename="..\favicon.png"
   inkscape:export-xdpi="455.11111"
   inkscape:export-ydpi="455.11111"
   xmlns:inkscape="http://www.inkscape.org/namespaces/inkscape"
   xmlns:sodipodi="http://sodipodi.sourceforge.net/DTD/sodipodi-0.dtd"
   xmlns="http://www.w3.org/2000/svg"
   xmlns:svg="http://www.w3.org/2000/svg"
   xmlns:rdf="http://www.w3.org/1999/02/22-rdf-syntax-ns#"
   xmlns:cc="http://creativecommons.org/ns#"
   xmlns:dc="http://purl.org/dc/elements/1.1/">
  <sodipodi:namedview
     id="namedview2390"
     pagecolor="#ffffff"
     bordercolor="#000000"
     borderopacity="0.25"
     inkscape:showpageshadow="2"
     inkscape:pageopacity="0.0"
     inkscape:pagecheckerboard="0"
     inkscape:deskcolor="#d1d1d1"
     showgrid="false"
     inkscape:zoom="9.277778"
     inkscape:cx="-27.26946"
     inkscape:cy="22.850299"
     inkscape:window-width="1419"
     inkscape:window-height="1205"
     inkscape:window-x="1788"
     inkscape:window-y="109"
     inkscape:window-maximized="0"
     inkscape:current-layer="logo-mobile">
    <inkscape:grid
       type="xygrid"
       id="grid2398" />
  </sodipodi:namedview>
  <!-- Generator: Sketch 51.3 (57544) - http://www.bohemiancoding.com/sketch -->
  <title
     id="title2378">logo-mobile</title>
  <desc
     id="desc2380">Created with Sketch.</desc>
  <defs
     id="defs2382">
    <clipPath
       clipPathUnits="userSpaceOnUse"
       id="clipPath6285">
      <path
         d="M -55.068802,-56.513381 H 68.992196 V 0.62761277 H -55.068802 Z"
         id="path6287"
         style="stroke-width:0.999998" />
    </clipPath>
    <clipPath
       clipPathUnits="userSpaceOnUse"
       id="clipPath6281">
      <path
         d="M -64.6846,-45.495008 H 59.376397 V 11.645986 H -64.6846 Z"
         id="path6283"
         style="stroke-width:0.999998" />
    </clipPath>
    <clipPath
       clipPathUnits="userSpaceOnUse"
       id="clipPath6277">
      <path
         d="M -71.3796,-25.976879 H 52.681398 V 31.164115 H -71.3796 Z"
         id="path6279"
         style="stroke-width:0.999998" />
    </clipPath>
    <clipPath
       clipPathUnits="userSpaceOnUse"
       id="clipPath6273">
      <path
         d="M -49.4454,-42.366713 H 74.615597 V 14.774281 H -49.4454 Z"
         id="path6275"
         style="stroke-width:0.999998" />
    </clipPath>
    <clipPath
       clipPathUnits="userSpaceOnUse"
       id="clipPath6269">
      <path
         d="M -55.045402,-56.513381 H 69.015596 V 0.62761277 H -55.045402 Z"
         id="path6271"
         style="stroke-width:0.999998" />
    </clipPath>
    <clipPath
       clipPathUnits="userSpaceOnUse"
       id="clipPath6265">
      <path
         d="M -50.137802,-43.707288 H 73.923195 V 13.433706 H -50.137802 Z"
         id="path6267"
         style="stroke-width:0.999998" />
    </clipPath>
    <clipPath
       clipPathUnits="userSpaceOnUse"
       id="clipPath6261">
      <path
         d="M -59.440302,-49.112501 H 64.620696 V 8.0284929 H -59.440302 Z"
         id="path6263"
         style="stroke-width:0.999998" />
    </clipPath>
    <clipPath
       clipPathUnits="userSpaceOnUse"
       id="clipPath6257">
      <path
         d="M -57.8842,-35.781689 H 66.176797 V 21.359305 H -57.8842 Z"
         id="path6259"
         style="stroke-width:0.999998" />
    </clipPath>
    <clipPath
       clipPathUnits="userSpaceOnUse"
       id="clipPath6253">
      <path
         d="M -57.564002,-35.977308 H 66.496996 V 21.163686 H -57.564002 Z"
         id="path6255"
         style="stroke-width:0.999998" />
    </clipPath>
    <clipPath
       clipPathUnits="userSpaceOnUse"
       id="clipPath6249">
      <path
         d="M -57.8842,-35.781689 H 66.176797 V 21.359305 H -57.8842 Z"
         id="path6251"
         style="stroke-width:0.999998" />
    </clipPath>
    <clipPath
       clipPathUnits="userSpaceOnUse"
       id="clipPath6245">
      <path
         d="M -58.111802,-40.406323 H 65.949195 V 16.734671 H -58.111802 Z"
         id="path6247"
         style="stroke-width:0.999998" />
    </clipPath>
    <clipPath
       clipPathUnits="userSpaceOnUse"
       id="clipPath6241">
      <path
         d="M -58.762501,-39.497082 H 65.298497 V 17.643912 H -58.762501 Z"
         id="path6243"
         style="stroke-width:0.999998" />
    </clipPath>
    <clipPath
       clipPathUnits="userSpaceOnUse"
       id="clipPath6237">
      <path
         d="M -58.111802,-40.406323 H 65.949195 V 16.734671 H -58.111802 Z"
         id="path6239"
         style="stroke-width:0.999998" />
    </clipPath>
    <clipPath
       clipPathUnits="userSpaceOnUse"
       id="clipPath6233">
      <path
         d="M -56.181701,-39.653271 H 67.879297 V 17.487723 H -56.181701 Z"
         id="path6235"
         style="stroke-width:0.999998" />
    </clipPath>
    <clipPath
       clipPathUnits="userSpaceOnUse"
       id="clipPath6229">
      <path
         d="M -59.8732,-40.868909 H 64.187797 V 16.272085 H -59.8732 Z"
         id="path6231"
         style="stroke-width:0.999998" />
    </clipPath>
    <clipPath
       clipPathUnits="userSpaceOnUse"
       id="clipPath6225">
      <path
         d="M -56.181701,-39.653271 H 67.879297 V 17.487723 H -56.181701 Z"
         id="path6227"
         style="stroke-width:0.999998" />
    </clipPath>
    <clipPath
       clipPathUnits="userSpaceOnUse"
       id="clipPath6221">
      <path
         d="M -62.4573,-29.93269 H 61.603698 V 27.208304 H -62.4573 Z"
         id="path6223"
         style="stroke-width:0.999998" />
    </clipPath>
    <clipPath
       clipPathUnits="userSpaceOnUse"
       id="clipPath6217">
      <path
         d="M -62.4573,-29.93269 H 61.603698 V 27.208304 H -62.4573 Z"
         id="path6219"
         style="stroke-width:0.999998" />
    </clipPath>
    <clipPath
       clipPathUnits="userSpaceOnUse"
       id="clipPath6213">
      <path
         d="M -63.805602,-30.456983 H 60.255395 V 26.684011 H -63.805602 Z"
         id="path6215"
         style="stroke-width:0.999998" />
    </clipPath>
    <clipPath
       clipPathUnits="userSpaceOnUse"
       id="clipPath6209">
      <path
         d="M -65.258202,-33.158219 H 58.802795 V 23.982775 H -65.258202 Z"
         id="path6211"
         style="stroke-width:0.999998" />
    </clipPath>
    <clipPath
       clipPathUnits="userSpaceOnUse"
       id="clipPath6205">
      <path
         d="M -63.805602,-30.456983 H 60.255395 V 26.684011 H -63.805602 Z"
         id="path6207"
         style="stroke-width:0.999998" />
    </clipPath>
    <clipPath
       clipPathUnits="userSpaceOnUse"
       id="clipPath6201">
      <path
         d="M -63.370201,-27.881971 H 60.690797 V 29.259023 H -63.370201 Z"
         id="path6203"
         style="stroke-width:0.999998" />
    </clipPath>
    <clipPath
       clipPathUnits="userSpaceOnUse"
       id="clipPath6197">
      <path
         d="M -62.7835,-27.394667 H 61.277498 V 29.746327 H -62.7835 Z"
         id="path6199"
         style="stroke-width:0.999998" />
    </clipPath>
    <clipPath
       clipPathUnits="userSpaceOnUse"
       id="clipPath6193">
      <path
         d="M -63.426602,-29.393812 H 60.634396 V 27.747182 H -63.426602 Z"
         id="path6195"
         style="stroke-width:0.999998" />
    </clipPath>
    <clipPath
       clipPathUnits="userSpaceOnUse"
       id="clipPath6189">
      <path
         d="M -63.370201,-27.881971 H 60.690797 V 29.259023 H -63.370201 Z"
         id="path6191"
         style="stroke-width:0.999998" />
    </clipPath>
    <clipPath
       clipPathUnits="userSpaceOnUse"
       id="clipPath6185">
      <path
         d="M -62.7835,-27.394667 H 61.277498 V 29.746327 H -62.7835 Z"
         id="path6187"
         style="stroke-width:0.999998" />
    </clipPath>
    <clipPath
       clipPathUnits="userSpaceOnUse"
       id="clipPath6181">
      <path
         d="M -61.8179,-30.613781 H 62.243097 V 26.527212 H -61.8179 Z"
         id="path6183"
         style="stroke-width:0.999998" />
    </clipPath>
    <clipPath
       clipPathUnits="userSpaceOnUse"
       id="clipPath6177">
      <path
         d="M -62.888402,-31.685989 H 61.172596 V 25.455005 H -62.888402 Z"
         id="path6179"
         style="stroke-width:0.999998" />
    </clipPath>
    <clipPath
       clipPathUnits="userSpaceOnUse"
       id="clipPath6173">
      <path
         d="M -61.8179,-30.613781 H 62.243097 V 26.527212 H -61.8179 Z"
         id="path6175"
         style="stroke-width:0.999998" />
    </clipPath>
    <clipPath
       clipPathUnits="userSpaceOnUse"
       id="clipPath6169">
      <path
         d="M -60.4089,-38.557873 H 63.652098 V 18.583121 H -60.4089 Z"
         id="path6171"
         style="stroke-width:0.999998" />
    </clipPath>
    <clipPath
       clipPathUnits="userSpaceOnUse"
       id="clipPath6165">
      <path
         d="M -69.615801,-38.77107 H 54.445197 V 18.369924 H -69.615801 Z"
         id="path6167"
         style="stroke-width:0.999998" />
    </clipPath>
    <clipPath
       clipPathUnits="userSpaceOnUse"
       id="clipPath6161">
      <path
         d="M -60.4089,-38.557873 H 63.652098 V 18.583121 H -60.4089 Z"
         id="path6163"
         style="stroke-width:0.999998" />
    </clipPath>
    <clipPath
       clipPathUnits="userSpaceOnUse"
       id="clipPath6157">
      <path
         d="M -73.4355,-34.786697 H 50.625497 V 22.354296 H -73.4355 Z"
         id="path6159"
         style="stroke-width:0.999998" />
    </clipPath>
    <clipPath
       clipPathUnits="userSpaceOnUse"
       id="clipPath6153">
      <path
         d="M -72.145703,-35.532118 H 51.915295 V 21.608875 H -72.145703 Z"
         id="path6155"
         style="stroke-width:0.999998" />
    </clipPath>
    <clipPath
       clipPathUnits="userSpaceOnUse"
       id="clipPath6149">
      <path
         d="M -73.4355,-34.786697 H 50.625497 V 22.354296 H -73.4355 Z"
         id="path6151"
         style="stroke-width:0.999998" />
    </clipPath>
    <clipPath
       clipPathUnits="userSpaceOnUse"
       id="clipPath6145">
      <path
         d="M -73.390602,-30.389782 H 50.670395 V 26.751212 H -73.390602 Z"
         id="path6147"
         style="stroke-width:0.999998" />
    </clipPath>
    <clipPath
       clipPathUnits="userSpaceOnUse"
       id="clipPath6141">
      <path
         d="M -70.7593,-39.410778 H 53.301698 V 17.730215 H -70.7593 Z"
         id="path6143"
         style="stroke-width:0.999998" />
    </clipPath>
    <clipPath
       clipPathUnits="userSpaceOnUse"
       id="clipPath6137">
      <path
         d="M -73.390602,-30.389782 H 50.670395 V 26.751212 H -73.390602 Z"
         id="path6139"
         style="stroke-width:0.999998" />
    </clipPath>
    <clipPath
       clipPathUnits="userSpaceOnUse"
       id="clipPath6133">
      <path
         d="M -72.262402,-30.613781 H 51.798596 V 26.527212 H -72.262402 Z"
         id="path6135"
         style="stroke-width:0.999998" />
    </clipPath>
    <clipPath
       clipPathUnits="userSpaceOnUse"
       id="clipPath6129">
      <path
         d="M -73.346702,-31.695998 H 50.714295 V 25.444996 H -73.346702 Z"
         id="path6131"
         style="stroke-width:0.999998" />
    </clipPath>
    <clipPath
       clipPathUnits="userSpaceOnUse"
       id="clipPath6125">
      <path
         d="M -72.262402,-30.613781 H 51.798596 V 26.527212 H -72.262402 Z"
         id="path6127"
         style="stroke-width:0.999998" />
    </clipPath>
    <clipPath
       clipPathUnits="userSpaceOnUse"
       id="clipPath6285-4">
      <path
         d="M -55.068802,-56.513381 H 68.992196 V 0.62761277 H -55.068802 Z"
         id="path6287-2"
         style="stroke-width:0.999998" />
    </clipPath>
    <clipPath
       clipPathUnits="userSpaceOnUse"
       id="clipPath6281-8">
      <path
         d="M -64.6846,-45.495008 H 59.376397 V 11.645986 H -64.6846 Z"
         id="path6283-5"
         style="stroke-width:0.999998" />
    </clipPath>
    <clipPath
       clipPathUnits="userSpaceOnUse"
       id="clipPath6277-3">
      <path
         d="M -71.3796,-25.976879 H 52.681398 V 31.164115 H -71.3796 Z"
         id="path6279-7"
         style="stroke-width:0.999998" />
    </clipPath>
    <clipPath
       clipPathUnits="userSpaceOnUse"
       id="clipPath6273-8">
      <path
         d="M -49.4454,-42.366713 H 74.615597 V 14.774281 H -49.4454 Z"
         id="path6275-8"
         style="stroke-width:0.999998" />
    </clipPath>
    <clipPath
       clipPathUnits="userSpaceOnUse"
       id="clipPath6269-6">
      <path
         d="M -55.045402,-56.513381 H 69.015596 V 0.62761277 H -55.045402 Z"
         id="path6271-6"
         style="stroke-width:0.999998" />
    </clipPath>
    <clipPath
       clipPathUnits="userSpaceOnUse"
       id="clipPath6265-5">
      <path
         d="M -50.137802,-43.707288 H 73.923195 V 13.433706 H -50.137802 Z"
         id="path6267-0"
         style="stroke-width:0.999998" />
    </clipPath>
    <clipPath
       clipPathUnits="userSpaceOnUse"
       id="clipPath6261-9">
      <path
         d="M -59.440302,-49.112501 H 64.620696 V 8.0284929 H -59.440302 Z"
         id="path6263-5"
         style="stroke-width:0.999998" />
    </clipPath>
    <clipPath
       clipPathUnits="userSpaceOnUse"
       id="clipPath6257-4">
      <path
         d="M -57.8842,-35.781689 H 66.176797 V 21.359305 H -57.8842 Z"
         id="path6259-7"
         style="stroke-width:0.999998" />
    </clipPath>
    <clipPath
       clipPathUnits="userSpaceOnUse"
       id="clipPath6253-8">
      <path
         d="M -57.564002,-35.977308 H 66.496996 V 21.163686 H -57.564002 Z"
         id="path6255-3"
         style="stroke-width:0.999998" />
    </clipPath>
    <clipPath
       clipPathUnits="userSpaceOnUse"
       id="clipPath6249-3">
      <path
         d="M -57.8842,-35.781689 H 66.176797 V 21.359305 H -57.8842 Z"
         id="path6251-0"
         style="stroke-width:0.999998" />
    </clipPath>
    <clipPath
       clipPathUnits="userSpaceOnUse"
       id="clipPath6245-3">
      <path
         d="M -58.111802,-40.406323 H 65.949195 V 16.734671 H -58.111802 Z"
         id="path6247-8"
         style="stroke-width:0.999998" />
    </clipPath>
    <clipPath
       clipPathUnits="userSpaceOnUse"
       id="clipPath6241-9">
      <path
         d="M -58.762501,-39.497082 H 65.298497 V 17.643912 H -58.762501 Z"
         id="path6243-4"
         style="stroke-width:0.999998" />
    </clipPath>
    <clipPath
       clipPathUnits="userSpaceOnUse"
       id="clipPath6237-4">
      <path
         d="M -58.111802,-40.406323 H 65.949195 V 16.734671 H -58.111802 Z"
         id="path6239-6"
         style="stroke-width:0.999998" />
    </clipPath>
    <clipPath
       clipPathUnits="userSpaceOnUse"
       id="clipPath6233-7">
      <path
         d="M -56.181701,-39.653271 H 67.879297 V 17.487723 H -56.181701 Z"
         id="path6235-0"
         style="stroke-width:0.999998" />
    </clipPath>
    <clipPath
       clipPathUnits="userSpaceOnUse"
       id="clipPath6229-6">
      <path
         d="M -59.8732,-40.868909 H 64.187797 V 16.272085 H -59.8732 Z"
         id="path6231-2"
         style="stroke-width:0.999998" />
    </clipPath>
    <clipPath
       clipPathUnits="userSpaceOnUse"
       id="clipPath6225-8">
      <path
         d="M -56.181701,-39.653271 H 67.879297 V 17.487723 H -56.181701 Z"
         id="path6227-2"
         style="stroke-width:0.999998" />
    </clipPath>
    <clipPath
       clipPathUnits="userSpaceOnUse"
       id="clipPath6221-8">
      <path
         d="M -62.4573,-29.93269 H 61.603698 V 27.208304 H -62.4573 Z"
         id="path6223-3"
         style="stroke-width:0.999998" />
    </clipPath>
    <clipPath
       clipPathUnits="userSpaceOnUse"
       id="clipPath6217-2">
      <path
         d="M -62.4573,-29.93269 H 61.603698 V 27.208304 H -62.4573 Z"
         id="path6219-1"
         style="stroke-width:0.999998" />
    </clipPath>
    <clipPath
       clipPathUnits="userSpaceOnUse"
       id="clipPath6213-9">
      <path
         d="M -63.805602,-30.456983 H 60.255395 V 26.684011 H -63.805602 Z"
         id="path6215-4"
         style="stroke-width:0.999998" />
    </clipPath>
    <clipPath
       clipPathUnits="userSpaceOnUse"
       id="clipPath6209-1">
      <path
         d="M -65.258202,-33.158219 H 58.802795 V 23.982775 H -65.258202 Z"
         id="path6211-9"
         style="stroke-width:0.999998" />
    </clipPath>
    <clipPath
       clipPathUnits="userSpaceOnUse"
       id="clipPath6205-0">
      <path
         d="M -63.805602,-30.456983 H 60.255395 V 26.684011 H -63.805602 Z"
         id="path6207-1"
         style="stroke-width:0.999998" />
    </clipPath>
    <clipPath
       clipPathUnits="userSpaceOnUse"
       id="clipPath6201-9">
      <path
         d="M -63.370201,-27.881971 H 60.690797 V 29.259023 H -63.370201 Z"
         id="path6203-6"
         style="stroke-width:0.999998" />
    </clipPath>
    <clipPath
       clipPathUnits="userSpaceOnUse"
       id="clipPath6197-8">
      <path
         d="M -62.7835,-27.394667 H 61.277498 V 29.746327 H -62.7835 Z"
         id="path6199-0"
         style="stroke-width:0.999998" />
    </clipPath>
    <clipPath
       clipPathUnits="userSpaceOnUse"
       id="clipPath6193-3">
      <path
         d="M -63.426602,-29.393812 H 60.634396 V 27.747182 H -63.426602 Z"
         id="path6195-2"
         style="stroke-width:0.999998" />
    </clipPath>
    <clipPath
       clipPathUnits="userSpaceOnUse"
       id="clipPath6189-9">
      <path
         d="M -63.370201,-27.881971 H 60.690797 V 29.259023 H -63.370201 Z"
         id="path6191-9"
         style="stroke-width:0.999998" />
    </clipPath>
    <clipPath
       clipPathUnits="userSpaceOnUse"
       id="clipPath6185-5">
      <path
         d="M -62.7835,-27.394667 H 61.277498 V 29.746327 H -62.7835 Z"
         id="path6187-3"
         style="stroke-width:0.999998" />
    </clipPath>
    <clipPath
       clipPathUnits="userSpaceOnUse"
       id="clipPath6181-8">
      <path
         d="M -61.8179,-30.613781 H 62.243097 V 26.527212 H -61.8179 Z"
         id="path6183-6"
         style="stroke-width:0.999998" />
    </clipPath>
    <clipPath
       clipPathUnits="userSpaceOnUse"
       id="clipPath6177-0">
      <path
         d="M -62.888402,-31.685989 H 61.172596 V 25.455005 H -62.888402 Z"
         id="path6179-6"
         style="stroke-width:0.999998" />
    </clipPath>
    <clipPath
       clipPathUnits="userSpaceOnUse"
       id="clipPath6173-0">
      <path
         d="M -61.8179,-30.613781 H 62.243097 V 26.527212 H -61.8179 Z"
         id="path6175-5"
         style="stroke-width:0.999998" />
    </clipPath>
    <clipPath
       clipPathUnits="userSpaceOnUse"
       id="clipPath6169-2">
      <path
         d="M -60.4089,-38.557873 H 63.652098 V 18.583121 H -60.4089 Z"
         id="path6171-0"
         style="stroke-width:0.999998" />
    </clipPath>
    <clipPath
       clipPathUnits="userSpaceOnUse"
       id="clipPath6165-8">
      <path
         d="M -69.615801,-38.77107 H 54.445197 V 18.369924 H -69.615801 Z"
         id="path6167-0"
         style="stroke-width:0.999998" />
    </clipPath>
    <clipPath
       clipPathUnits="userSpaceOnUse"
       id="clipPath6161-9">
      <path
         d="M -60.4089,-38.557873 H 63.652098 V 18.583121 H -60.4089 Z"
         id="path6163-2"
         style="stroke-width:0.999998" />
    </clipPath>
    <clipPath
       clipPathUnits="userSpaceOnUse"
       id="clipPath6157-9">
      <path
         d="M -73.4355,-34.786697 H 50.625497 V 22.354296 H -73.4355 Z"
         id="path6159-4"
         style="stroke-width:0.999998" />
    </clipPath>
    <clipPath
       clipPathUnits="userSpaceOnUse"
       id="clipPath6153-6">
      <path
         d="M -72.145703,-35.532118 H 51.915295 V 21.608875 H -72.145703 Z"
         id="path6155-9"
         style="stroke-width:0.999998" />
    </clipPath>
    <clipPath
       clipPathUnits="userSpaceOnUse"
       id="clipPath6149-9">
      <path
         d="M -73.4355,-34.786697 H 50.625497 V 22.354296 H -73.4355 Z"
         id="path6151-3"
         style="stroke-width:0.999998" />
    </clipPath>
    <clipPath
       clipPathUnits="userSpaceOnUse"
       id="clipPath6145-2">
      <path
         d="M -73.390602,-30.389782 H 50.670395 V 26.751212 H -73.390602 Z"
         id="path6147-5"
         style="stroke-width:0.999998" />
    </clipPath>
    <clipPath
       clipPathUnits="userSpaceOnUse"
       id="clipPath6141-5">
      <path
         d="M -70.7593,-39.410778 H 53.301698 V 17.730215 H -70.7593 Z"
         id="path6143-5"
         style="stroke-width:0.999998" />
    </clipPath>
    <clipPath
       clipPathUnits="userSpaceOnUse"
       id="clipPath6137-9">
      <path
         d="M -73.390602,-30.389782 H 50.670395 V 26.751212 H -73.390602 Z"
         id="path6139-7"
         style="stroke-width:0.999998" />
    </clipPath>
    <clipPath
       clipPathUnits="userSpaceOnUse"
       id="clipPath6133-7">
      <path
         d="M -72.262402,-30.613781 H 51.798596 V 26.527212 H -72.262402 Z"
         id="path6135-9"
         style="stroke-width:0.999998" />
    </clipPath>
    <clipPath
       clipPathUnits="userSpaceOnUse"
       id="clipPath6129-7">
      <path
         d="M -73.346702,-31.695998 H 50.714295 V 25.444996 H -73.346702 Z"
         id="path6131-4"
         style="stroke-width:0.999998" />
    </clipPath>
    <clipPath
       clipPathUnits="userSpaceOnUse"
       id="clipPath6125-6">
      <path
         d="M -72.262402,-30.613781 H 51.798596 V 26.527212 H -72.262402 Z"
         id="path6127-6"
         style="stroke-width:0.999998" />
    </clipPath>
  </defs>
  <g
     id="Page-1"
     stroke="none"
     stroke-width="1"
     fill="none"
     fill-rule="evenodd">
    <g
       id="logo-mobile">
      <g
         id="g6494"
         transform="matrix(4.3696401,0,0,4.3696401,-295.58721,-294.07071)">
        <path
           transform="matrix(0.35277777,0,0,-0.35277777,71.538377,68.002599)"
           d="m 0,0 c 3.734,0.503 6.987,-1.212 9.615,-5.843 0.805,-1.419 1.123,-2.711 1.15,-3.855 0.078,-3.43 -2.469,-5.526 -2.355,-5.726 2.659,-4.687 6.235,-10.598 9.063,-15.582 -3.081,0 -7.795,0.153 -10.755,0.153 -3.013,5.309 -6.175,10.732 -6.308,10.822 -0.27,0.184 -5.724,-1.896 -9.266,4.353 -1.878,3.314 -2.383,7.107 -0.344,10.324 0.967,-1.703 3.755,-6.437 4.322,-7.436 1.208,-0.076 5.415,-0.066 6.242,0.028 0.985,1.828 1.958,3.546 2.941,5.369 0,0 -3.237,5.511 -4.305,7.393"
           fill="#00afef"
           id="path3012"
           clip-path="url(#clipPath6285-4)" />
        <path
           transform="matrix(0.35277777,0,0,-0.35277777,74.930617,71.889636)"
           d="M 0,0 C 0.004,-0.001 0.008,-0.002 0.013,-0.003 0.415,1.922 0.369,3.624 -1.933,6.81 -4.111,9.825 -6.695,10.553 -8.169,10.633 -8.175,10.628 -8.13,10.602 -8.107,10.582 -5.925,10.479 -3.743,8.938 -1.48,5.444 -0.186,3.447 0.2,1.754 -0.011,0.19 -0.022,0.115 0.013,0.075 0,0"
           fill="#ffffff"
           id="path3014"
           clip-path="url(#clipPath6281-8)" />
        <path
           transform="matrix(0.35277777,0,0,-0.35277777,77.292464,78.775198)"
           d="m 0,0 c -2.31,3.827 -6.122,10.677 -8.476,14.641 0.082,-0.354 0.083,-0.794 0.114,-0.927 C -6.419,10.276 -1.282,1.348 -0.8,0.53 -0.649,0.379 -0.188,0.168 0,0"
           fill="#ffffff"
           id="path3016"
           clip-path="url(#clipPath6277-3)" />
        <path
           transform="matrix(0.35277777,0,0,-0.35277777,69.554566,72.993229)"
           d="M 0,0 C 0.658,-0.338 5.815,0.165 6.082,0.329 4.125,0.329 0.599,0.125 0.196,0.319 -0.223,0.521 -2.242,4.565 -3.491,6.746 -3.397,6.416 -0.444,0.228 0,0"
           fill="#ffffff"
           id="path3018"
           clip-path="url(#clipPath6273-8)" />
        <path
           transform="matrix(0.35277777,0,0,-0.35277777,71.530122,68.002599)"
           stroke-width="0.467"
           stroke-linecap="butt"
           stroke-miterlimit="10"
           stroke-linejoin="miter"
           fill="none"
           stroke="#006083"
           d="m 0,0 c 3.734,0.503 6.987,-1.212 9.615,-5.843 0.806,-1.419 1.123,-2.711 1.15,-3.855 0.078,-3.43 -2.469,-5.526 -2.355,-5.726 2.659,-4.687 6.235,-10.598 9.063,-15.582 -3.081,0 -7.795,0.153 -10.755,0.153 -3.013,5.309 -6.175,10.732 -6.308,10.822 -0.27,0.184 -5.724,-1.896 -9.265,4.353 -1.879,3.314 -2.384,7.107 -0.345,10.324 0.967,-1.703 3.755,-6.437 4.322,-7.436 1.208,-0.076 5.415,-0.066 6.242,0.028 0.985,1.828 1.958,3.546 2.941,5.369 0,0 -3.237,5.511 -4.305,7.393 z"
           id="path3020"
           clip-path="url(#clipPath6269-6)" />
        <path
           transform="matrix(0.35277777,0,0,-0.35277777,69.79883,72.520304)"
           stroke-width="0.467"
           stroke-linecap="butt"
           stroke-miterlimit="10"
           stroke-linejoin="miter"
           fill="none"
           stroke="#006083"
           d="M 0,0 -0.537,-6.504"
           id="path3022"
           clip-path="url(#clipPath6265-5)" />
        <path
           transform="matrix(0.35277777,0,0,-0.35277777,73.080545,70.613465)"
           stroke-width="0.467"
           stroke-linecap="butt"
           stroke-miterlimit="10"
           stroke-linejoin="miter"
           fill="none"
           stroke="#006083"
           d="M 0,0 6.242,-1.904"
           id="path3024"
           clip-path="url(#clipPath6261-9)" />
        <path
           transform="matrix(0.35277777,0,0,-0.35277777,72.531587,75.316279)"
           d="M 0,0 C -0.09,0 -0.181,0.021 -0.267,0.065 -0.553,0.212 -0.666,0.564 -0.519,0.851 L 0.443,2.722 C 0.591,3.008 0.942,3.122 1.23,2.974 1.516,2.826 1.629,2.474 1.482,2.188 L 0.52,0.317 C 0.416,0.115 0.212,0 0,0"
           fill="#fbaf4b"
           id="path3026"
           clip-path="url(#clipPath6257-4)" />
        <path
           transform="matrix(0.35277777,0,0,-0.35277777,72.418628,75.247269)"
           d="M 0,0 C 0.393,-0.222 0.804,0.85 1.267,1.778 1.328,1.652 1.401,1.468 1.463,1.341 1.159,0.73 0.707,-0.633 0,0"
           fill="#ffffff"
           id="path3028"
           clip-path="url(#clipPath6253-8)" />
        <path
           transform="matrix(0.35277777,0,0,-0.35277777,72.531587,75.316279)"
           stroke-width="0.233"
           stroke-linecap="butt"
           stroke-miterlimit="10"
           stroke-linejoin="miter"
           fill="none"
           stroke="#765021"
           d="M 0,0 C -0.09,0 -0.181,0.021 -0.267,0.065 -0.553,0.212 -0.666,0.564 -0.519,0.851 L 0.443,2.722 C 0.591,3.008 0.942,3.122 1.23,2.974 1.516,2.826 1.629,2.474 1.482,2.188 L 0.52,0.317 C 0.416,0.115 0.212,0 0,0 Z"
           id="path3030"
           clip-path="url(#clipPath6249-3)" />
        <path
           transform="matrix(0.35277777,0,0,-0.35277777,72.61188,73.684811)"
           d="M 0,0 V 0 C 0.275,0.134 0.607,0.019 0.741,-0.257 L 4.278,-7.539 C 4.412,-7.815 4.297,-8.146 4.022,-8.28 3.746,-8.414 3.414,-8.299 3.281,-8.024 l -3.538,7.283 C -0.39,-0.465 -0.275,-0.134 0,0"
           fill="#fbaf4b"
           id="path3032"
           clip-path="url(#clipPath6245-3)" />
        <path
           transform="matrix(0.35277777,0,0,-0.35277777,72.841432,74.005571)"
           d="m 0,0 c 0.798,-1.718 1.271,-2.619 1.746,-3.641 0.014,-0.03 0.03,-0.058 0.045,-0.087 0.83,-1.607 1.384,-2.776 1.487,-2.974 0.215,-0.417 -0.038,-0.673 -0.038,-0.673 0,0 0.464,0.096 0.403,0.499 -0.057,0.377 -3.252,7.002 -3.252,7.002"
           fill="#ffffff"
           id="path3034"
           clip-path="url(#clipPath6241-9)" />
        <path
           transform="matrix(0.35277777,0,0,-0.35277777,72.61188,73.684811)"
           stroke-width="0.233"
           stroke-linecap="round"
           stroke-linejoin="round"
           fill="none"
           stroke="#765021"
           d="M 0,0 V 0 C 0.275,0.134 0.607,0.019 0.741,-0.257 L 4.278,-7.539 C 4.412,-7.815 4.297,-8.146 4.022,-8.28 3.746,-8.414 3.414,-8.299 3.281,-8.024 l -3.538,7.283 C -0.39,-0.465 -0.275,-0.134 0,0 Z"
           id="path3036"
           clip-path="url(#clipPath6237-4)" />
        <path
           transform="matrix(0.35277777,0,0,-0.35277777,71.930983,73.950471)"
           d="M 0,0 C 0.392,-0.794 4.776,0.186 4.447,0.957 4.25,1.419 0.74,1.518 0.157,1.373 c 0,0 -0.304,-0.206 -0.304,-0.551 C -0.147,0.371 -0.032,0.065 0,0"
           fill="#fbaf4b"
           id="path3038"
           clip-path="url(#clipPath6233-7)" />
        <path
           transform="matrix(0.35277777,0,0,-0.35277777,73.233262,73.521621)"
           d="m 0,0 c 0.441,-0.306 0.271,-0.456 0.159,-0.561 -0.371,-0.346 -1.276,-0.578 -1.769,-0.725 0.525,-0.03 1.533,0.245 1.974,0.54 0.217,0.145 0.406,0.373 0.346,0.628 z"
           fill="#ffffff"
           id="path3040"
           clip-path="url(#clipPath6229-6)" />
        <path
           transform="matrix(0.35277777,0,0,-0.35277777,71.930983,73.950471)"
           stroke-width="0.233"
           stroke-linecap="butt"
           stroke-miterlimit="10"
           stroke-linejoin="miter"
           fill="none"
           stroke="#765021"
           d="M 0,0 C 0.392,-0.794 4.776,0.186 4.447,0.957 4.25,1.419 0.74,1.518 0.157,1.373 c 0,0 -0.304,-0.206 -0.304,-0.551 C -0.147,0.371 -0.032,0.065 0,0 Z"
           id="path3042"
           clip-path="url(#clipPath6225-8)" />
        <path
           transform="matrix(0.35277777,0,0,-0.35277777,74.144875,77.379676)"
           d="m 0,0 c -0.016,0 -0.032,0 -0.047,0.002 l -1.216,0.097 c -0.321,0.026 -0.561,0.308 -0.535,0.629 0.026,0.321 0.306,0.56 0.628,0.535 L 0.046,1.165 C 0.367,1.139 0.607,0.858 0.581,0.537 0.556,0.232 0.301,0 0,0"
           fill="#fbaf4b"
           id="path3044"
           clip-path="url(#clipPath6221-8)" />
        <path
           transform="matrix(0.35277777,0,0,-0.35277777,74.144875,77.379676)"
           stroke-width="0.233"
           stroke-linecap="butt"
           stroke-miterlimit="10"
           stroke-linejoin="miter"
           fill="none"
           stroke="#765021"
           d="m 0,0 c -0.016,0 -0.032,0 -0.047,0.002 l -1.216,0.097 c -0.321,0.026 -0.561,0.308 -0.535,0.629 0.026,0.321 0.306,0.56 0.628,0.535 L 0.046,1.165 C 0.367,1.139 0.607,0.858 0.581,0.537 0.556,0.232 0.301,0 0,0 Z"
           id="path3046"
           clip-path="url(#clipPath6217-2)" />
        <path
           transform="matrix(0.35277777,0,0,-0.35277777,74.620526,77.194717)"
           d="M 0,0 C -0.156,0 -0.312,0.062 -0.426,0.185 -0.647,0.42 -0.634,0.79 -0.399,1.01 l 6.99,6.534 C 6.827,7.764 7.196,7.751 7.416,7.516 7.636,7.281 7.623,6.911 7.388,6.691 L 0.398,0.157 C 0.286,0.052 0.143,0 0,0"
           fill="#fbaf4b"
           id="path3048"
           clip-path="url(#clipPath6213-9)" />
        <path
           transform="matrix(0.35277777,0,0,-0.35277777,75.132971,76.241781)"
           d="M 0,0 C 0.241,0.099 0.906,0.531 1.293,0.822 2.132,1.453 3.427,2.748 4.929,4.154 4.902,4.295 4.817,4.437 4.79,4.579 2.797,2.713 -0.102,0.055 0,0"
           fill="#ffffff"
           id="path3050"
           clip-path="url(#clipPath6209-1)" />
        <path
           transform="matrix(0.35277777,0,0,-0.35277777,74.620526,77.194717)"
           stroke-width="0.233"
           stroke-linecap="butt"
           stroke-miterlimit="10"
           stroke-linejoin="miter"
           fill="none"
           stroke="#765021"
           d="M 0,0 C -0.156,0 -0.312,0.062 -0.426,0.185 -0.647,0.42 -0.634,0.79 -0.399,1.01 l 6.99,6.534 C 6.827,7.764 7.196,7.751 7.416,7.516 7.636,7.281 7.623,6.911 7.388,6.691 L 0.398,0.157 C 0.286,0.052 0.143,0 0,0 Z"
           id="path3052"
           clip-path="url(#clipPath6205-0)" />
        <path
           transform="matrix(0.35277777,0,0,-0.35277777,74.466926,78.103124)"
           d="M 0,0 C -0.286,0 -0.536,0.211 -0.577,0.502 L -0.88,2.65 c -0.045,0.319 0.178,0.615 0.497,0.66 0.318,0.045 0.614,-0.178 0.659,-0.497 L 0.579,0.665 C 0.623,0.346 0.401,0.051 0.082,0.006 0.054,0.002 0.027,0 0,0"
           fill="#fbaf4b"
           id="path3054"
           clip-path="url(#clipPath6201-9)" />
        <path
           transform="matrix(0.35277777,0,0,-0.35277777,74.259951,78.275034)"
           d="m 0,0 c -0.284,0 -0.532,0.207 -0.576,0.496 -0.049,0.319 0.17,0.616 0.489,0.665 L 1.405,1.387 C 1.725,1.436 2.021,1.217 2.069,0.898 2.118,0.58 1.899,0.282 1.58,0.233 L 0.088,0.007 C 0.059,0.002 0.029,0 0,0"
           fill="#fbaf4b"
           id="path3056"
           clip-path="url(#clipPath6197-8)" />
        <path
           transform="matrix(0.35277777,0,0,-0.35277777,74.486823,77.56978)"
           d="M 0,0 C 0.077,-0.473 0.072,-0.496 0.115,-0.757 0.183,-1.178 0.7,-0.941 0.831,-0.935 1.185,-0.919 1.22,-1.311 1.157,-1.43 1.087,-1.561 0.915,-1.637 0.773,-1.707 c 0.239,-0.005 0.508,0.097 0.589,0.321 0.082,0.225 0.006,0.498 -0.18,0.648 -0.186,0.15 -0.469,0.166 -0.671,0.038 -0.065,0.327 -0.13,0.655 -0.195,0.983"
           fill="#ffffff"
           id="path3058"
           clip-path="url(#clipPath6193-3)" />
        <path
           transform="matrix(0.35277777,0,0,-0.35277777,74.466926,78.103124)"
           stroke-width="0.233"
           stroke-linecap="butt"
           stroke-miterlimit="10"
           stroke-linejoin="miter"
           fill="none"
           stroke="#765021"
           d="M 0,0 C -0.286,0 -0.536,0.211 -0.577,0.502 L -0.88,2.65 c -0.045,0.319 0.178,0.615 0.497,0.66 0.318,0.045 0.614,-0.178 0.659,-0.497 L 0.579,0.665 C 0.623,0.346 0.401,0.051 0.082,0.006 0.054,0.002 0.027,0 0,0 Z"
           id="path3060"
           clip-path="url(#clipPath6189-9)" />
        <path
           transform="matrix(0.35277777,0,0,-0.35277777,74.259951,78.275034)"
           stroke-width="0.233"
           stroke-linecap="butt"
           stroke-miterlimit="10"
           stroke-linejoin="miter"
           fill="none"
           stroke="#765021"
           d="m 0,0 c -0.284,0 -0.532,0.207 -0.576,0.496 -0.049,0.319 0.17,0.616 0.489,0.665 L 1.405,1.387 C 1.725,1.436 2.021,1.217 2.069,0.898 2.118,0.58 1.899,0.282 1.58,0.233 L 0.088,0.007 C 0.059,0.002 0.029,0 0,0 Z"
           id="path3062"
           clip-path="url(#clipPath6185-5)" />
        <path
           transform="matrix(0.35277777,0,0,-0.35277777,73.919309,77.139402)"
           d="M 0,0 C 0,0.661 0.525,1.196 1.173,1.196 1.821,1.196 2.346,0.661 2.346,0 2.346,-0.661 1.821,-1.196 1.173,-1.196 0.525,-1.196 0,-0.661 0,0"
           fill="#fbaf4b"
           id="path3064"
           clip-path="url(#clipPath6181-8)" />
        <path
           transform="matrix(0.35277777,0,0,-0.35277777,74.296958,76.761151)"
           d="M 0,0 C 0.025,-0.007 0.05,-0.013 0.074,-0.021 0.658,-0.23 0.801,-0.678 0.835,-0.787 1.064,-1.517 0.281,-2.175 0.281,-2.175 L 0.859,-2.032 1.283,-1.167 1.062,-0.348 0.509,0.031 0.013,0.012"
           fill="#ffffff"
           id="path3066"
           clip-path="url(#clipPath6177-0)" />
        <path
           transform="matrix(0.35277777,0,0,-0.35277777,73.919309,77.139402)"
           stroke-width="0.233"
           stroke-linecap="butt"
           stroke-miterlimit="10"
           stroke-linejoin="miter"
           fill="none"
           stroke="#765021"
           d="M 0,0 C 0,0.661 0.525,1.196 1.173,1.196 1.821,1.196 2.346,0.661 2.346,0 2.346,-0.661 1.821,-1.196 1.173,-1.196 0.525,-1.196 0,-0.661 0,0 Z"
           id="path3068"
           clip-path="url(#clipPath6173-0)" />
        <path
           transform="matrix(0.35277777,0,0,-0.35277777,73.422245,74.336903)"
           d="M 0,0 V 0 C 0,0.306 0.248,0.554 0.554,0.554 H 9.322 C 9.628,0.554 9.876,0.306 9.876,0 9.876,-0.306 9.628,-0.554 9.322,-0.554 H 0.554 C 0.248,-0.554 0,-0.306 0,0"
           fill="#fbaf4b"
           id="path3070"
           clip-path="url(#clipPath6169-2)" />
        <path
           transform="matrix(0.35277777,0,0,-0.35277777,76.670235,74.261692)"
           d="m 0,0 -9.102,0.096 0.133,0.142 0.796,0.135 8.085,-0.019"
           fill="#ffffff"
           id="path3072"
           clip-path="url(#clipPath6165-8)" />
        <path
           transform="matrix(0.35277777,0,0,-0.35277777,73.422245,74.336903)"
           stroke-width="0.233"
           stroke-linecap="round"
           stroke-linejoin="round"
           fill="none"
           stroke="#765021"
           d="M 0,0 V 0 C 0,0.306 0.248,0.554 0.554,0.554 H 9.322 C 9.628,0.554 9.876,0.306 9.876,0 9.876,-0.306 9.628,-0.554 9.322,-0.554 H 0.554 C 0.248,-0.554 0,-0.306 0,0 Z"
           id="path3074"
           clip-path="url(#clipPath6161-9)" />
        <path
           transform="matrix(0.35277777,0,0,-0.35277777,78.01774,75.66729)"
           d="m 0,0 c -2.25,0 -4.08,-1.872 -4.08,-4.173 0,-2.301 1.83,-4.172 4.08,-4.172 2.25,0 4.08,1.871 4.08,4.172 C 4.08,-1.872 2.25,0 0,0 m 0,-9.513 c -2.893,0 -5.247,2.396 -5.247,5.34 0,2.944 2.354,5.34 5.247,5.34 2.893,0 5.247,-2.396 5.247,-5.34 0,-2.944 -2.354,-5.34 -5.247,-5.34"
           fill="#fbaf4b"
           id="path3076"
           clip-path="url(#clipPath6157-9)" />
        <path
           transform="matrix(0.35277777,0,0,-0.35277777,77.562728,75.404322)"
           d="m 0,0 c 1.726,0.405 3.769,-0.242 4.9,-1.641 1.131,-1.4 1.583,-3.343 0.824,-5.21 C 5.004,-8.625 3.337,-9.832 1.522,-10.107 3.166,-10.34 5.486,-8.72 6.163,-6.84 6.949,-4.657 6.34,-2.683 5.109,-1.225 3.694,0.452 -0.279,0.654 0,0"
           fill="#ffffff"
           id="path3078"
           clip-path="url(#clipPath6153-6)" />
        <path
           transform="matrix(0.35277777,0,0,-0.35277777,78.01774,75.66729)"
           stroke-width="0.233"
           stroke-linecap="butt"
           stroke-miterlimit="10"
           stroke-linejoin="miter"
           fill="none"
           stroke="#765021"
           d="m 0,0 c -2.25,0 -4.08,-1.872 -4.08,-4.173 0,-2.301 1.83,-4.172 4.08,-4.172 2.25,0 4.08,1.871 4.08,4.172 C 4.08,-1.872 2.25,0 0,0 Z m 0,-9.513 c -2.893,0 -5.247,2.396 -5.247,5.34 0,2.944 2.354,5.34 5.247,5.34 2.893,0 5.247,-2.396 5.247,-5.34 0,-2.944 -2.354,-5.34 -5.247,-5.34 z"
           id="path3080"
           clip-path="url(#clipPath6149-9)" />
        <path
           transform="matrix(0.35277777,0,0,-0.35277777,78.001901,77.218424)"
           d="m 0,0 c -0.234,0 -0.454,0.141 -0.544,0.373 l -3.73,9.606 c -0.089,0.228 -0.026,0.487 0.158,0.649 0.654,0.576 1.258,1.299 1.402,1.658 -0.417,0.053 -1.413,-0.07 -2.336,-0.299 -0.313,-0.078 -0.629,0.113 -0.707,0.426 -0.077,0.313 0.113,0.629 0.426,0.707 2.082,0.517 3.323,0.451 3.688,-0.196 0.489,-0.868 -0.55,-2.096 -1.399,-2.896 L 0.544,0.795 C 0.66,0.495 0.511,0.156 0.211,0.04 0.141,0.013 0.07,0 0,0"
           fill="#fbaf4b"
           id="path3082"
           clip-path="url(#clipPath6145-2)" />
        <path
           transform="matrix(0.35277777,0,0,-0.35277777,77.073636,74.036017)"
           d="M 0,0 C -0.241,0.604 -0.455,0.951 -0.171,1.268 0.018,1.403 0.22,1.603 0.345,1.772 0.776,2.253 1.391,3.252 0.995,3.876 0.916,4 0.496,4.229 0.176,4.311 0.467,4.205 0.726,3.873 0.762,3.737 0.961,2.974 0.117,2.1 -0.246,1.698 -0.584,1.324 -0.933,1.258 -0.745,0.79 0.332,-1.888 1.386,-4.738 2.502,-7.532 L 2.923,-7.534 C 1.929,-5.046 0.994,-2.488 0,0"
           fill="#ffffff"
           id="path3084"
           clip-path="url(#clipPath6141-5)" />
        <path
           transform="matrix(0.35277777,0,0,-0.35277777,78.001901,77.218424)"
           stroke-width="0.233"
           stroke-linecap="butt"
           stroke-miterlimit="10"
           stroke-linejoin="miter"
           fill="none"
           stroke="#765021"
           d="m 0,0 c -0.234,0 -0.454,0.141 -0.544,0.373 l -3.73,9.606 c -0.089,0.228 -0.026,0.487 0.158,0.649 0.654,0.576 1.258,1.299 1.402,1.658 -0.417,0.053 -1.413,-0.07 -2.336,-0.299 -0.313,-0.078 -0.629,0.113 -0.707,0.426 -0.077,0.313 0.113,0.629 0.426,0.707 2.082,0.517 3.323,0.451 3.688,-0.196 0.489,-0.868 -0.55,-2.096 -1.399,-2.896 L 0.544,0.795 C 0.66,0.495 0.511,0.156 0.211,0.04 0.141,0.013 0.07,0 0,0 Z"
           id="path3086"
           clip-path="url(#clipPath6137-9)" />
        <path
           transform="matrix(0.35277777,0,0,-0.35277777,77.603897,77.139402)"
           d="M 0,0 C 0,0.661 0.525,1.196 1.173,1.196 1.821,1.196 2.346,0.661 2.346,0 2.346,-0.661 1.821,-1.196 1.173,-1.196 0.525,-1.196 0,-0.661 0,0"
           fill="#fbaf4b"
           id="path3088"
           clip-path="url(#clipPath6133-7)" />
        <path
           transform="matrix(0.35277777,0,0,-0.35277777,77.986414,76.75762)"
           d="M 0,0 C 0.026,-0.007 0.051,-0.013 0.074,-0.021 0.658,-0.23 0.801,-0.678 0.835,-0.787 1.064,-1.517 0.281,-2.175 0.281,-2.175 L 0.859,-2.032 1.283,-1.167 1.062,-0.348 0.509,0.03 0.013,0.012"
           fill="#ffffff"
           id="path3090"
           clip-path="url(#clipPath6129-7)" />
        <path
           transform="matrix(0.35277777,0,0,-0.35277777,77.603897,77.139402)"
           stroke-width="0.233"
           stroke-linecap="butt"
           stroke-miterlimit="10"
           stroke-linejoin="miter"
           fill="none"
           stroke="#765021"
           d="M 0,0 C 0,0.661 0.525,1.196 1.173,1.196 1.821,1.196 2.346,0.661 2.346,0 2.346,-0.661 1.821,-1.196 1.173,-1.196 0.525,-1.196 0,-0.661 0,0 Z"
           id="path3092"
           clip-path="url(#clipPath6125-6)" />
      </g>
    </g>
  </g>
  <metadata
     id="metadata8161">
    <rdf:RDF>
      <cc:Work
         rdf:about="">
        <dc:title>logo-mobile</dc:title>
      </cc:Work>
    </rdf:RDF>
  </metadata>
</svg>
